<svg width="375" height="812" viewBox="0 0 375 812" fill="none" xmlns="http://www.w3.org/2000/svg">
<g clip-path="url(#clip0_1321_4327)">
<rect width="375" height="812" fill="white"/>
<path d="M265.641 367.004C266.929 362.786 272.901 362.786 274.188 367.004L281.22 390.046C281.622 391.365 282.611 392.423 283.898 392.916L305.908 401.326C309.739 402.79 309.739 408.21 305.908 409.674L283.898 418.084C282.611 418.577 281.622 419.635 281.22 420.954L274.188 443.996C272.901 448.214 266.929 448.214 265.641 443.996L258.61 420.954C258.208 419.635 257.219 418.577 255.931 418.084L233.922 409.674C230.091 408.21 230.091 402.79 233.922 401.326L255.931 392.916C257.219 392.423 258.208 391.365 258.61 390.046L265.641 367.004Z" fill="#F5C70F" fill-opacity="0.11"/>
<path d="M105.317 496.643C110.476 492.411 118.142 496.739 117.182 503.343L112.656 534.485C112.243 537.324 113.53 540.141 115.946 541.689L142.444 558.658C148.063 562.256 146.316 570.883 139.74 572.012L108.722 577.337C105.895 577.823 103.613 579.917 102.889 582.692L94.9344 613.145C93.2482 619.601 84.5024 620.604 81.3978 614.698L66.7577 586.847C65.4227 584.307 62.7249 582.784 59.8608 582.953L28.4509 584.803C21.79 585.195 18.1318 577.188 22.7887 572.409L44.7558 549.869C46.7576 547.815 47.3724 544.78 46.3278 542.108L34.8656 512.798C32.4358 506.584 38.9204 500.632 44.9035 503.584L73.1212 517.509C75.6938 518.778 78.7712 518.425 80.989 516.605L105.317 496.643Z" fill="#0FF5D7" fill-opacity="0.11"/>
<path d="M-11.9537 -74.0015C-0.482452 -114.197 56.4825 -114.197 67.9537 -74.0015C74.1072 -52.4394 96.2596 -39.6497 118.01 -45.1017C158.556 -55.265 187.038 -5.93198 157.963 24.1002C142.367 40.2103 142.367 65.7897 157.963 81.8998C187.038 111.932 158.556 161.265 118.01 151.102C96.2596 145.65 74.1072 158.439 67.9537 180.001C56.4825 220.197 -0.482452 220.197 -11.9537 180.001C-18.1072 158.439 -40.2596 145.65 -62.0096 151.102C-102.556 161.265 -131.038 111.932 -101.963 81.8998C-86.3668 65.7897 -86.3668 40.2103 -101.963 24.1002C-131.038 -5.93198 -102.556 -55.265 -62.0096 -45.1017C-40.2596 -39.6497 -18.1072 -52.4394 -11.9537 -74.0015Z" fill="#FF8DFB" fill-opacity="0.1"/>
</g>
<defs>
<clipPath id="clip0_1321_4327">
<rect width="375" height="812" fill="white"/>
</clipPath>
</defs>
</svg>
