<svg width="40" height="40" viewBox="0 0 40 40" fill="none" xmlns="http://www.w3.org/2000/svg">
<rect width="40" height="40" rx="20" fill="#EFF1F3"/>
<path d="M13 15C12.4477 15 12 15.4477 12 16C12 16.5523 12.4477 17 13 17V15ZM18.4547 17.1852L17.5414 17.5926L18.4547 17.1852ZM13 17H16.6282V15H13V17ZM17.5414 17.5926L20.4987 24.2222L22.3252 23.4074L19.3679 16.7778L17.5414 17.5926ZM23.2385 26H26V24H23.2385V26ZM20.4987 24.2222C20.9811 25.3035 22.0544 26 23.2385 26V24C22.8438 24 22.486 23.7678 22.3252 23.4074L20.4987 24.2222ZM16.6282 17C17.0229 17 17.3806 17.2322 17.5414 17.5926L19.3679 16.7778C18.8856 15.6965 17.8123 15 16.6282 15V17Z" fill="#6B7684"/>
<path d="M13 26C12.4477 26 12 25.5523 12 25C12 24.4477 12.4477 24 13 24V26ZM18.4547 23.8148L17.5414 23.4074L18.4547 23.8148ZM13 24H16.6282V26H13V24ZM17.5414 23.4074L20.4987 16.7778L22.3252 17.5926L19.3679 24.2222L17.5414 23.4074ZM23.2385 15H26V17H23.2385V15ZM20.4987 16.7778C20.9811 15.6965 22.0544 15 23.2385 15V17C22.8438 17 22.486 17.2322 22.3252 17.5926L20.4987 16.7778ZM16.6282 24C17.0229 24 17.3806 23.7678 17.5414 23.4074L19.3679 24.2222C18.8856 25.3035 17.8123 26 16.6282 26V24Z" fill="#6B7684"/>
<path d="M28.8232 24.8232C28.9209 24.9209 28.9209 25.0791 28.8232 25.1768L26.4268 27.5732C26.2693 27.7307 26 27.6192 26 27.3964L26 22.6036C26 22.3808 26.2693 22.2693 26.4268 22.4268L28.8232 24.8232Z" fill="#6B7684"/>
<path d="M28.8232 15.8232C28.9209 15.9209 28.9209 16.0791 28.8232 16.1768L26.4268 18.5732C26.2693 18.7307 26 18.6192 26 18.3964L26 13.6036C26 13.3808 26.2693 13.2693 26.4268 13.4268L28.8232 15.8232Z" fill="#6B7684"/>
</svg>
