<svg width="120" height="120" viewBox="0 0 120 120" fill="none" xmlns="http://www.w3.org/2000/svg">
<rect x="0.5" y="0.5" width="119" height="119" rx="11.5" fill="white"/>
<rect x="0.5" y="0.5" width="119" height="119" rx="11.5" stroke="#E5E8EB"/>
<path d="M81 46.6628V49.0342C80.997 50.138 80.7372 51.2259 80.2412 52.2119C79.7598 53.2065 79.0534 54.0753 78.178 54.7494C77.3034 55.416 76.2905 55.8779 75.2137 56.1011C74.7378 56.196 74.2556 56.2434 73.7671 56.2434C73.149 56.2434 72.5403 56.1723 71.9411 56.03L61.8862 53.1842V72.6775C61.8924 75.2929 60.9959 77.8303 59.3481 79.8613C57.7003 81.8923 55.4021 83.2925 52.8416 83.8254C50.2811 84.3583 47.6151 83.9913 45.2938 82.7864C42.9725 81.5815 41.1381 79.6124 40.1003 77.2117C39.0626 74.811 38.885 72.1258 39.5977 69.6093C40.3103 67.0929 41.8695 64.8995 44.0119 63.3994C46.1544 61.8993 48.7488 61.1845 51.3572 61.3757C53.9656 61.5668 56.4282 62.6522 58.3291 64.4486V37.1059C58.3025 36.9489 58.3025 36.7886 58.3291 36.6316V36.4419C58.4439 36.1785 58.62 35.9463 58.8428 35.7648C59.0655 35.5833 59.3285 35.4577 59.6096 35.3984H60.6531L75.5931 39.6433C77.117 40.0535 78.4613 40.9588 79.4143 42.2167C80.3674 43.4745 80.8752 45.0136 80.8577 46.5916L81 46.6628Z" fill="#ADB5BD"/>
</svg>
