<svg width="40" height="40" viewBox="0 0 40 40" fill="none" xmlns="http://www.w3.org/2000/svg">
<g filter="url(#filter0_i_1052_4339)">
<path d="M9.51095 18.5445C9.38913 17.5649 9.76579 16.5894 10.5143 15.9459L18.4471 9.12564C19.5519 8.17571 21.1852 8.17571 22.29 9.12564L30.2228 15.9459C30.9713 16.5894 31.348 17.5649 31.2262 18.5445L29.9004 29.2058C29.7168 30.6815 28.4627 31.7894 26.9755 31.7894L13.7616 31.7894C12.2744 31.7894 11.0203 30.6815 10.8367 29.2058L9.51095 18.5445Z" fill="#8B95A1"/>
</g>
<g filter="url(#filter1_i_1052_4339)">
<path d="M14.2919 26.567C13.8041 23.0983 16.4972 20 20 20C23.5027 20 26.1959 23.0983 25.7081 26.567L24.9737 31.7895H15.0263L14.2919 26.567Z" fill="#ADB5BD"/>
</g>
<path d="M25.7554 14.5136C25.8008 14.3806 25.9889 14.3806 26.0343 14.5136L26.528 15.9592C26.5427 16.0024 26.5766 16.0363 26.6198 16.0511L28.0654 16.5447C28.1984 16.5901 28.1984 16.7782 28.0654 16.8236L26.6198 17.3173C26.5766 17.332 26.5427 17.3659 26.528 17.4091L26.0343 18.8547C25.9889 18.9877 25.8008 18.9877 25.7554 18.8547L25.2618 17.4091C25.247 17.3659 25.2131 17.332 25.1699 17.3173L23.7243 16.8236C23.5913 16.7782 23.5913 16.5901 23.7243 16.5447L25.1699 16.0511C25.2131 16.0363 25.247 16.0024 25.2618 15.9592L25.7554 14.5136Z" fill="white" fill-opacity="0.32"/>
<defs>
<filter id="filter0_i_1052_4339" x="9.48828" y="8.41321" width="21.7605" height="23.3762" filterUnits="userSpaceOnUse" color-interpolation-filters="sRGB">
<feFlood flood-opacity="0" result="BackgroundImageFix"/>
<feBlend mode="normal" in="SourceGraphic" in2="BackgroundImageFix" result="shape"/>
<feColorMatrix in="SourceAlpha" type="matrix" values="0 0 0 0 0 0 0 0 0 0 0 0 0 0 0 0 0 0 127 0" result="hardAlpha"/>
<feOffset dx="-0.736842" dy="-0.736842"/>
<feComposite in2="hardAlpha" operator="arithmetic" k2="-1" k3="1"/>
<feColorMatrix type="matrix" values="0 0 0 0 0 0 0 0 0 0 0 0 0 0 0 0 0 0 0.25 0"/>
<feBlend mode="normal" in2="shape" result="effect1_innerShadow_1052_4339"/>
</filter>
<filter id="filter1_i_1052_4339" x="14.2346" y="20" width="11.5308" height="11.7894" filterUnits="userSpaceOnUse" color-interpolation-filters="sRGB">
<feFlood flood-opacity="0" result="BackgroundImageFix"/>
<feBlend mode="normal" in="SourceGraphic" in2="BackgroundImageFix" result="shape"/>
<feColorMatrix in="SourceAlpha" type="matrix" values="0 0 0 0 0 0 0 0 0 0 0 0 0 0 0 0 0 0 127 0" result="hardAlpha"/>
<feOffset dx="1.47368" dy="0.736842"/>
<feComposite in2="hardAlpha" operator="arithmetic" k2="-1" k3="1"/>
<feColorMatrix type="matrix" values="0 0 0 0 0.509804 0 0 0 0 0.533333 0 0 0 0 0.556863 0 0 0 1 0"/>
<feBlend mode="normal" in2="shape" result="effect1_innerShadow_1052_4339"/>
</filter>
</defs>
</svg>
