<svg width="99" height="29" viewBox="0 0 99 29" fill="none" xmlns="http://www.w3.org/2000/svg">
<path d="M56.3595 13.0499L64.9227 4.30287C66.0361 3.1655 67.8669 3.1655 68.9803 4.30287L77.5435 13.0499C78.624 14.1536 78.624 15.9186 77.5435 17.0223L68.9803 25.7694C67.8669 26.9068 66.0361 26.9068 64.9227 25.7694L56.3595 17.0223C55.279 15.9186 55.279 14.1536 56.3595 13.0499Z" fill="#DADADA" stroke="#9B9B9B" stroke-width="3.04878" stroke-linecap="round"/>
<path d="M83.2285 21.8592L89.1371 15.4442L95.4052 21.787C97.1775 23.5804 95.9071 26.6219 93.3858 26.6219H85.3169C82.8432 26.6219 81.5527 23.6787 83.2285 21.8592Z" fill="white"/>
<path d="M78.8418 3.45117H93.7082C96.1818 3.45117 97.4724 6.39442 95.7966 8.21387L83.2285 21.8592C81.5527 23.6787 82.8432 26.6219 85.3169 26.6219H93.3858C95.9071 26.6219 97.1775 23.5804 95.4052 21.787L83.9637 10.2093" stroke="#9B9B9B" stroke-width="3.04878" stroke-linecap="round"/>
<path d="M1.74412 21.728V6.23851C1.74412 3.94892 4.36838 2.65209 6.18712 4.0429L10.7961 7.56744C12.1115 8.57333 13.9377 8.57334 15.2531 7.56744L19.8621 4.0429C21.6808 2.65209 24.3051 3.94892 24.3051 6.2385V21.728C24.3051 24.4387 22.1076 26.6362 19.3969 26.6362H6.65232C3.94159 26.6362 1.74412 24.4387 1.74412 21.728Z" fill="#DADADA" stroke="#9B9B9B" stroke-width="3.04878" stroke-linecap="round"/>
<path d="M30.6709 3.45117V17.1707C30.6709 22.3904 34.9024 26.6219 40.1221 26.6219V26.6219C45.3419 26.6219 49.5733 22.3904 49.5733 17.1707V3.45117" stroke="#9B9B9B" stroke-width="3.04878" stroke-linecap="round"/>
<path d="M39.9967 9.65214C40.0291 9.48942 40.2617 9.48942 40.2942 9.65214L40.9958 13.1756C41.007 13.2317 41.0487 13.2767 41.1037 13.2921L44.1728 14.1502C44.3205 14.1915 44.3205 14.4009 44.1728 14.4423L41.1037 15.3004C41.0487 15.3157 41.007 15.3608 40.9958 15.4168L40.2942 18.9403C40.2617 19.103 40.0291 19.103 39.9967 18.9403L39.295 15.4168C39.2838 15.3608 39.2421 15.3157 39.1871 15.3004L36.1181 14.4423C35.9703 14.4009 35.9703 14.1915 36.1181 14.1502L39.1871 13.2921C39.2421 13.2767 39.2838 13.2317 39.295 13.1756L39.9967 9.65214Z" fill="#9B9B9B"/>
<path d="M66.7409 8.77986C66.7866 8.54955 67.1159 8.54955 67.1616 8.77986L68.148 13.7564C68.1637 13.8356 68.2226 13.8993 68.3004 13.9211L72.6189 15.1343C72.8274 15.1929 72.8274 15.4885 72.6189 15.5471L68.3004 16.7603C68.2226 16.7821 68.1637 16.8458 68.148 16.925L67.1616 21.9015C67.1159 22.1318 66.7866 22.1318 66.7409 21.9015L65.7545 16.925C65.7388 16.8458 65.6799 16.7821 65.6022 16.7603L61.2837 15.5471C61.0751 15.4885 61.0751 15.1929 61.2837 15.1343L65.6022 13.9211C65.6799 13.8993 65.7388 13.8356 65.7545 13.7564L66.7409 8.77986Z" fill="white"/>
</svg>
