<svg width="97" height="28" viewBox="0 0 97 28" fill="none" xmlns="http://www.w3.org/2000/svg">
<g clip-path="url(#clip0_944_4898)">
<path d="M55.0401 12.4848L63.2322 4.11675C64.2974 3.02867 66.0489 3.02867 67.1141 4.11675L75.3062 12.4848C76.3399 13.5407 76.3399 15.2291 75.3062 16.285L67.1141 24.6531C66.0489 25.7411 64.2974 25.7411 63.2322 24.6531L55.0401 16.285C54.0064 15.2291 54.0064 13.5407 55.0401 12.4848Z" fill="#BF81FE" stroke="#40017E" stroke-width="2.91667" stroke-linecap="round"/>
<path d="M80.745 20.9127L86.3975 14.7756L92.394 20.8436C94.0895 22.5593 92.8742 25.469 90.4621 25.469H82.7428C80.3764 25.469 79.1418 22.6533 80.745 20.9127Z" fill="#DAF50F"/>
<path d="M76.5483 3.30231H90.7705C93.137 3.30231 94.3716 6.11801 92.7684 7.85863L80.745 20.9127C79.1418 22.6533 80.3764 25.469 82.7428 25.469H90.4621C92.8742 25.469 94.0895 22.5593 92.394 20.8436L81.4483 9.76759" stroke="#40017E" stroke-width="2.91667" stroke-linecap="round"/>
<path d="M2.79159 20.7869V5.9686C2.79159 3.77823 5.30213 2.53759 7.04206 3.86814L11.4513 7.23995C12.7097 8.20225 14.4568 8.20225 15.7152 7.23995L20.1244 3.86814C21.8644 2.53759 24.3749 3.77823 24.3749 5.9686V20.7869C24.3749 23.3801 22.2727 25.4824 19.6794 25.4824H7.4871C4.89384 25.4824 2.79159 23.3801 2.79159 20.7869Z" fill="#BF81FE" stroke="#40017E" stroke-width="2.91667" stroke-linecap="round"/>
<path d="M30.4648 3.30231V16.4273C30.4648 21.4209 34.5129 25.469 39.5065 25.469V25.469C44.5001 25.469 48.5482 21.4209 48.5482 16.4273V3.30231" stroke="#40017E" stroke-width="2.91667" stroke-linecap="round"/>
<path d="M39.3868 9.23452C39.4178 9.07885 39.6404 9.07885 39.6714 9.23452L40.3427 12.6053C40.3533 12.6589 40.3932 12.702 40.4459 12.7167L43.3819 13.5376C43.5232 13.5771 43.5232 13.7775 43.3819 13.8171L40.4459 14.638C40.3932 14.6527 40.3533 14.6958 40.3427 14.7494L39.6714 18.1202C39.6404 18.2758 39.4178 18.2758 39.3868 18.1202L38.7155 14.7494C38.7048 14.6958 38.6649 14.6527 38.6123 14.638L35.6763 13.8171C35.5349 13.7775 35.5349 13.5771 35.6763 13.5376L38.6123 12.7167C38.6649 12.702 38.7048 12.6589 38.7155 12.6053L39.3868 9.23452Z" fill="#A54DFD"/>
<path d="M64.9721 8.40075C65.0158 8.18042 65.3309 8.18042 65.3746 8.40075L66.3182 13.1616C66.3333 13.2374 66.3896 13.2983 66.464 13.3192L70.5953 14.4798C70.7949 14.5359 70.7949 14.8187 70.5953 14.8748L66.464 16.0353C66.3896 16.0562 66.3333 16.1172 66.3182 16.1929L65.3746 20.9538C65.3309 21.1742 65.0158 21.1742 64.9721 20.9538L64.0284 16.1929C64.0134 16.1172 63.9571 16.0562 63.8827 16.0353L59.7513 14.8748C59.5518 14.8187 59.5518 14.5359 59.7513 14.4798L63.8827 13.3192C63.9571 13.2983 64.0134 13.2374 64.0284 13.1616L64.9721 8.40075Z" fill="white"/>
</g>
<defs>
<clipPath id="clip0_944_4898">
<rect width="96" height="28" fill="white" transform="translate(0.166504)"/>
</clipPath>
</defs>
</svg>
