<svg width="106" height="127" viewBox="0 0 106 127" fill="none" xmlns="http://www.w3.org/2000/svg">
<path fill-rule="evenodd" clip-rule="evenodd" d="M30.8743 29.1707C32.3461 27.3191 35.1582 27.3191 36.63 29.1707L47.5195 42.8698C47.5772 42.9423 47.6894 42.9423 47.747 42.8698L58.6366 29.1707C60.1084 27.3191 62.9205 27.3191 64.3923 29.1707L75.2818 42.8698C76.4685 44.3626 77.7454 46.625 79.5866 47.1218C87.113 49.1525 93.1243 55.1962 94.9126 63.09C97.952 76.5058 87.7531 89.2736 73.9973 89.2736H21.4519C8.01331 89.2736 -2.11417 77.0553 0.378847 63.8499C1.92165 55.6778 7.97913 49.3242 15.6753 47.1728C17.5229 46.6564 18.791 44.3716 19.9847 42.8698L30.8743 29.1707Z" fill="#494949"/>
<circle cx="32.9227" cy="65.3095" r="5.51451" fill="#AC5AFF" stroke="#DAF50F" stroke-width="3.67634"/>
<path d="M57.0911 69.8718L66.214 60.7489" stroke="#DAF50F" stroke-width="3.67634" stroke-linecap="round"/>
<path d="M57.0911 60.7483L66.214 69.8712" stroke="#DAF50F" stroke-width="3.67634" stroke-linecap="round"/>
<path d="M24.2249 94.3885C26.9418 86.2127 34.589 80.6956 43.2044 80.6956H52.052C60.6674 80.6956 68.3146 86.2127 71.0315 94.3885L78.1005 115.661C82.4029 128.608 72.7644 141.968 59.121 141.968H36.1355C22.4921 141.968 12.8535 128.608 17.156 115.661L24.2249 94.3885Z" fill="#494949"/>
<path d="M97.8714 91.7252C86.2297 85.5979 78.0759 99.5878 90.6634 111.076C102.14 121.55 88.3258 135.369 77.5611 128.105" stroke="#494949" stroke-width="9.80357" stroke-linecap="round"/>
<path d="M104.428 21.9273L104.099 23.0223C103.945 23.5316 103.674 23.9979 103.308 24.3845C102.948 24.777 102.502 25.0803 102.004 25.2702C101.508 25.4568 100.976 25.5297 100.448 25.4835C100.215 25.4614 99.9857 25.4164 99.7602 25.3487C99.4747 25.263 99.2035 25.1458 98.9466 24.9971L94.6981 22.2894L91.9962 31.2906C91.6366 32.4991 90.8709 33.5465 89.8285 34.256C88.7861 34.9654 87.5308 35.2934 86.2746 35.1846C85.0184 35.0757 83.8382 34.5368 82.9333 33.6586C82.0285 32.7805 81.4543 31.617 81.3079 30.3646C81.1615 29.1123 81.4517 27.8477 82.1295 26.7845C82.8074 25.7213 83.8314 24.9246 85.0286 24.5289C86.2258 24.1331 87.5229 24.1627 88.7008 24.6125C89.8788 25.0623 90.8654 25.9048 91.4942 26.9977L95.2841 14.372C95.2936 14.2958 95.3158 14.2218 95.3498 14.153L95.3761 14.0654C95.4656 13.9597 95.5791 13.8769 95.7071 13.824C95.8352 13.771 95.974 13.7495 96.112 13.7611L96.5938 13.9057L102.904 17.9366C103.551 18.3372 104.046 18.9416 104.312 19.6545C104.578 20.3674 104.599 21.1485 104.372 21.8747L104.428 21.9273Z" fill="#ADB5BD"/>
<path d="M82.7884 3.15421L83.2251 3.81827C83.4275 4.1279 83.5552 4.48039 83.5978 4.84786C83.6462 5.215 83.6084 5.58836 83.4874 5.93835C83.3653 6.28608 83.1667 6.60197 82.9063 6.86277C82.7905 6.97697 82.6642 7.07905 82.5274 7.16902C82.3543 7.28286 82.1708 7.37503 81.9768 7.44554L78.6371 8.50041L82.227 13.9589C82.7104 14.6902 82.9267 15.5658 82.8393 16.438C82.7519 17.3102 82.3662 18.1255 81.7474 18.7463C81.1285 19.3671 80.3144 19.7553 79.4425 19.8454C78.5706 19.9354 77.6943 19.7219 76.9615 19.2408C76.2288 18.7596 75.6846 18.0404 75.4207 17.2045C75.1568 16.3686 75.1895 15.4673 75.5132 14.6526C75.8368 13.838 76.4317 13.1601 77.1973 12.7332C77.9629 12.3064 78.8524 12.1568 79.7155 12.3098L74.68 4.65321C74.6437 4.61413 74.6141 4.56924 74.5927 4.52039L74.5577 4.46727C74.5414 4.37236 74.5479 4.27492 74.5769 4.18307C74.6058 4.09122 74.6563 4.00762 74.7241 3.93925L75.0163 3.74709L79.9816 2.18435C80.4839 2.01858 81.027 2.02452 81.5256 2.20123C82.0241 2.37794 82.4497 2.7154 82.7354 3.16049L82.7884 3.15421Z" fill="#ADB5BD"/>
</svg>
