<svg width="111" height="80" viewBox="0 0 111 80" fill="none" xmlns="http://www.w3.org/2000/svg">
<path fill-rule="evenodd" clip-rule="evenodd" d="M42.1374 2.29004C44.1029 -0.182617 47.8582 -0.182616 49.8237 2.29004L64.3657 20.5841C64.4428 20.681 64.5926 20.681 64.6696 20.5841L79.2117 2.29004C81.1772 -0.182617 84.9325 -0.182616 86.898 2.29004L101.44 20.5841C103.025 22.5776 104.73 25.5987 107.189 26.2621C117.24 28.9739 125.267 37.0448 127.655 47.5863C131.714 65.5021 118.094 82.5524 99.7246 82.5524H29.5545C11.6084 82.5524 -1.91608 66.2358 1.41315 48.6012C3.47345 37.6879 11.5628 29.2031 21.8405 26.3302C24.3078 25.6405 26.0012 22.5895 27.5953 20.5841L42.1374 2.29004Z" fill="#494949"/>
<circle cx="44.8729" cy="50.5499" r="7.36417" fill="#AC5AFF" stroke="#DAF50F" stroke-width="4.90945"/>
<path d="M77.148 56.6416L89.3309 44.4587" stroke="#DAF50F" stroke-width="4.90945" stroke-linecap="round"/>
<path d="M77.148 44.458L89.3309 56.6409" stroke="#DAF50F" stroke-width="4.90945" stroke-linecap="round"/>
<path d="M34.4938 85.6626C37.3838 76.9659 45.5183 71.0972 54.6826 71.0972H74.3388C83.5031 71.0972 91.6376 76.9658 94.5275 85.6626L107.579 124.938C112.156 138.71 101.903 152.921 87.3904 152.921H41.631C27.1184 152.921 16.8657 138.71 21.4423 124.938L34.4938 85.6626Z" fill="#494949"/>
<path d="M131.606 85.8251C116.06 77.6425 105.171 96.3249 121.981 111.666C137.307 125.654 118.859 144.107 104.484 134.408" stroke="#494949" stroke-width="13.0919" stroke-linecap="round"/>
<path d="M63.9872 74.1056C64.2798 74.7391 65.1802 74.7391 65.4728 74.1056L69.8626 64.6016C70.113 64.0594 69.717 63.4402 69.1197 63.4402H60.3403C59.7431 63.4402 59.347 64.0594 59.5975 64.6016L63.9872 74.1056Z" fill="#FFAED1"/>
</svg>
