<svg width="375" height="300" viewBox="0 0 375 300" fill="none" xmlns="http://www.w3.org/2000/svg">
<path fill-rule="evenodd" clip-rule="evenodd" d="M171.938 53.9197C173.222 52.3041 175.676 52.3041 176.96 53.9197L186.461 65.8723C186.512 65.9356 186.609 65.9355 186.66 65.8723L196.161 53.9197C197.445 52.3041 199.899 52.3041 201.183 53.9197L210.684 65.8723C210.894 66.1366 211.107 66.4285 211.327 66.7295C212.192 67.9123 213.159 69.2365 214.44 69.5819C221.007 71.3536 226.252 76.6269 227.813 83.5145C230.464 95.2201 221.566 106.36 209.564 106.36H205.309C205.645 107.007 205.933 107.686 206.168 108.393L213.087 129.213C213.589 128.962 214.148 128.807 214.744 128.772C220.259 128.446 224.9 130.484 227.623 134.391C230.269 138.19 230.619 143.068 229.106 147.558C226.017 156.728 215.485 164.438 198.33 164.582C195.969 164.602 194.038 162.703 194.018 160.341C193.998 157.979 195.897 156.048 198.259 156.028C213.039 155.905 219.434 149.476 221 144.828C221.815 142.409 221.424 140.457 220.604 139.281C219.87 138.227 218.35 137.158 215.367 137.304C216.031 145.156 209.844 152.338 201.505 152.338H171.608C162.126 152.338 155.427 143.053 158.417 134.054L166.945 108.393C167.18 107.686 167.468 107.007 167.804 106.36H163.717C151.992 106.36 143.155 95.6994 145.331 84.1776C146.677 77.0473 151.962 71.5037 158.677 69.6266C159.951 69.2704 160.909 67.9505 161.769 66.7658C161.997 66.4516 162.219 66.147 162.437 65.8723L171.938 53.9197Z" fill="#ECECEC"/>
<circle cx="173.726" cy="85.4524" r="4.81148" fill="white" stroke="#C4C4C4" stroke-width="3.20766"/>
<path d="M194.812 89.4326L202.772 81.4727" stroke="#C4C4C4" stroke-width="3.20766" stroke-linecap="round"/>
<path d="M194.812 81.4722L202.772 89.4321" stroke="#C4C4C4" stroke-width="3.20766" stroke-linecap="round"/>
<path d="M217.25 112.449C217.25 117.535 212.731 121.657 207.156 121.657C201.582 121.657 197.062 117.535 197.062 112.449C197.062 107.603 203.364 99.4499 206.687 94.7091C206.91 94.3913 207.384 94.4045 207.593 94.7316C210.907 99.9222 217.25 107.587 217.25 112.449Z" fill="#DCDCDC"/>
<path d="M103.953 187.082V204.758H101.785V195.109H98.3867V193.332H101.785V187.082H103.953ZM95.6328 191.77C95.6328 194.816 97.2734 198.059 100.125 199.289L98.8359 201.027C96.7852 200.051 95.3203 198.088 94.5586 195.754C93.7676 198.244 92.2734 200.344 90.2227 201.379L88.9141 199.68C91.7461 198.352 93.4062 194.992 93.4258 191.77V190.598H89.6367V188.82H99.4219V190.598H95.6328V191.77ZM112.262 190.266C112.262 192.434 113.668 194.465 116.422 195.305L115.387 197.004C113.404 196.389 111.998 195.129 111.227 193.527C110.445 195.383 108.951 196.857 106.832 197.57L105.738 195.852C108.59 194.914 110.074 192.629 110.074 190.285V190.07H106.344V188.312H115.934V190.07H112.262V190.266ZM119.859 187.082V191.32H122.32V193.098H119.859V197.609H117.691V187.082H119.859ZM114.117 198C117.77 198 120.016 199.23 120.035 201.34C120.016 203.469 117.77 204.719 114.117 204.719C110.426 204.719 108.141 203.469 108.141 201.34C108.141 199.23 110.426 198 114.117 198ZM114.117 199.699C111.695 199.699 110.309 200.266 110.309 201.34C110.309 202.434 111.695 203.02 114.117 203.02C116.539 203.02 117.887 202.434 117.887 201.34C117.887 200.266 116.539 199.699 114.117 199.699ZM132.992 192.629V194.367H129.711V196.359C131.186 196.301 132.65 196.203 134.027 196.066L134.184 197.629C130.434 198.156 126.371 198.254 123.09 198.254L122.797 196.516C124.252 196.506 125.863 196.496 127.523 196.438V194.367H124.32V188.176H132.855V189.934H126.508V192.629H132.992ZM137.445 187.082V200.344H135.258V187.082H137.445ZM137.953 202.629V204.387H125.609V199.367H127.797V202.629H137.953ZM151.777 187.434C155.684 187.434 158.125 188.723 158.145 190.871C158.125 192.98 155.684 194.25 151.777 194.23C147.91 194.25 145.41 192.98 145.41 190.871C145.41 188.723 147.91 187.434 151.777 187.434ZM151.777 189.133C149.199 189.133 147.656 189.738 147.676 190.871C147.656 191.945 149.199 192.531 151.777 192.551C154.355 192.531 155.898 191.945 155.898 190.871C155.898 189.738 154.355 189.133 151.777 189.133ZM157.891 198.586V204.523H145.645V198.586H157.891ZM147.793 200.305V202.766H155.781V200.305H147.793ZM159.844 195.422V197.18H143.75V195.422H159.844ZM165.496 188.098C168.211 188.078 170.242 189.855 170.262 192.336C170.242 194.855 168.211 196.613 165.496 196.613C162.762 196.613 160.711 194.855 160.73 192.336C160.711 189.855 162.762 188.078 165.496 188.098ZM165.496 189.934C163.973 189.953 162.84 190.871 162.859 192.336C162.84 193.84 163.973 194.777 165.496 194.758C167 194.777 168.133 193.84 168.133 192.336C168.133 190.871 167 189.953 165.496 189.934ZM174.461 187.082V191.379H176.922V193.156H174.461V197.434H172.293V187.082H174.461ZM174.461 198.234V204.758H172.293V199.992H162.703V198.234H174.461ZM190.746 188.82C190.746 194.152 189.281 198.723 182.777 201.965L181.586 200.324C184.643 198.811 186.459 197.053 187.484 194.953L181.996 195.48L181.723 193.605L188.148 193.195C188.373 192.375 188.51 191.506 188.578 190.578H182.641V188.82H190.746ZM195.395 187.082V193.996H198.012V195.773H195.395V204.699H193.227V187.082H195.395ZM212.688 195.363V197.102H200.305V188.625H212.551V190.383H202.453V195.363H212.688ZM214.484 200.695V202.492H198.352V200.695H214.484ZM228.965 187.082V193.977H231.582V195.793H228.965V204.699H226.797V187.082H228.965ZM224.297 188.918C224.297 194.113 222.148 198.664 216.27 201.555L215.039 199.875C219.336 197.736 221.66 194.729 222.109 190.715H215.996V188.918H224.297ZM240.172 197.414V199.309H242.496V197.414H244.508V203.02C246.578 202.15 247.535 200.363 247.535 198.684V197.277H249.703V198.684C249.703 200.52 250.641 202.297 252.828 203.039L251.715 204.66C250.162 204.104 249.156 203.029 248.609 201.691C248.014 202.99 247.008 204.064 245.543 204.66L244.508 203.117V204.523H238.141V197.414H240.172ZM240.172 202.863H242.496V200.93H240.172V202.863ZM241.07 187.805C243.346 187.805 245.143 189.074 245.602 190.988H248.785V187.082H250.953V196.438H248.785V192.785H245.602C245.172 194.748 243.355 196.047 241.07 196.047C238.355 196.047 236.402 194.348 236.402 191.906C236.402 189.484 238.355 187.805 241.07 187.805ZM241.07 189.602C239.547 189.602 238.473 190.5 238.473 191.906C238.473 193.332 239.547 194.27 241.07 194.27C242.555 194.27 243.609 193.332 243.629 191.906C243.609 190.5 242.555 189.602 241.07 189.602ZM257.777 188.371C260.17 188.371 261.938 190.363 262.25 193.586H265.609V187.082H267.758V204.758H265.609V195.344H262.27C262.035 198.752 260.238 200.852 257.777 200.852C255.121 200.852 253.246 198.449 253.246 194.602C253.246 190.793 255.121 188.371 257.777 188.371ZM257.777 190.324C256.312 190.324 255.316 191.906 255.336 194.602C255.316 197.316 256.312 198.898 257.777 198.898C259.242 198.898 260.219 197.316 260.238 194.602C260.219 191.906 259.242 190.324 257.777 190.324ZM285.871 200.812V202.59H269.738V200.812H273.469V196.34C272.062 195.539 271.213 194.279 271.223 192.707C271.203 189.895 273.977 188.039 277.766 188.039C281.574 188.039 284.348 189.895 284.348 192.707C284.348 194.25 283.527 195.49 282.16 196.301V200.812H285.871ZM277.766 189.758C275.129 189.758 273.332 190.871 273.352 192.707C273.332 194.523 275.129 195.656 277.766 195.656C280.402 195.656 282.219 194.523 282.219 192.707C282.219 190.871 280.402 189.758 277.766 189.758ZM275.617 200.812H279.953V197.121C279.279 197.277 278.547 197.355 277.766 197.355C277.004 197.355 276.281 197.277 275.617 197.141V200.812Z" fill="#4E5968"/>
<path d="M72.0625 219.129V227.086H66.334V219.129H72.0625ZM67.6055 220.154V226.033H70.7773V220.154H67.6055ZM75.4121 217.912V222.711H77.3809V223.805H75.4121V230.162H74.1133V217.912H75.4121ZM79.3555 218.541V220.332H82.418V218.541H83.7031V220.852H86.3828V217.912H87.6816V224.598H86.3828V221.932H83.7031V224.188H78.0566V218.541H79.3555ZM79.3555 223.135H82.418V221.344H79.3555V223.135ZM80.9824 225.172V226.553H86.3828V225.172H87.668V229.984H79.6973V225.172H80.9824ZM80.9824 228.932H86.3828V227.564H80.9824V228.932ZM93.3203 221.029C93.3066 223.203 94.5645 225.418 96.3965 226.307L95.5898 227.346C94.2568 226.655 93.2246 225.281 92.6914 223.641C92.1377 225.391 91.0645 226.854 89.6699 227.578L88.8633 226.525C90.75 225.623 92.0215 223.271 92.0215 221.029V218.938H93.3203V221.029ZM98.6113 217.912V222.793H100.58V223.9H98.6113V230.162H97.3125V217.912H98.6113ZM109.164 218.65C111.789 218.664 113.689 219.949 113.689 221.904C113.689 223.743 112.097 224.953 109.807 225.145V227.551H114.797V228.631H103.586V227.551H108.521V225.145C106.245 224.953 104.652 223.743 104.652 221.904C104.652 219.949 106.553 218.664 109.164 218.65ZM109.164 219.717C107.277 219.703 105.91 220.578 105.91 221.904C105.91 223.285 107.277 224.133 109.164 224.146C111.064 224.133 112.432 223.285 112.432 221.904C112.432 220.578 111.064 219.703 109.164 219.717ZM126.396 227.51V228.576H115.186V227.51H126.396ZM121.447 220.51C121.447 222.383 123.566 224.037 125.904 224.406L125.385 225.432C123.409 225.062 121.584 223.907 120.777 222.301C119.991 223.921 118.18 225.11 116.238 225.486L115.705 224.447C117.988 224.078 120.094 222.383 120.094 220.51V220.127H116.115V219.074H125.426V220.127H121.447V220.51ZM137.326 217.912V230.162H136.082V217.912H137.326ZM134.838 218.145V229.561H133.594V223.654H132.213C132.104 226.047 131.078 227.537 129.561 227.523C127.961 227.537 126.922 225.855 126.922 223.203C126.922 220.551 127.961 218.883 129.561 218.896C131.051 218.883 132.062 220.298 132.213 222.602H133.594V218.145H134.838ZM129.561 220.113C128.672 220.113 128.125 221.248 128.125 223.203C128.125 225.158 128.672 226.293 129.561 226.293C130.463 226.293 131.023 225.158 131.023 223.203C131.023 221.248 130.463 220.113 129.561 220.113ZM148.912 217.912V230.162H147.682V217.912H148.912ZM146.328 218.227V229.561H145.098V223.873H142.705C141.974 225.295 140.812 226.539 139.082 227.551L138.344 226.621C140.941 225.076 142.192 223.019 142.418 220.496H138.918V219.43H143.703C143.696 220.626 143.532 221.768 143.156 222.834H145.098V218.227H146.328ZM159.273 219.156C159.26 222.766 158.152 225.979 153.682 228.18L152.971 227.209C155.186 226.122 156.505 224.803 157.236 223.244L153.23 223.627L153.039 222.506L157.633 222.191C157.817 221.569 157.927 220.906 157.975 220.209H153.682V219.156H159.273ZM162.445 217.912V222.807H164.346V223.873H162.445V230.148H161.146V217.912H162.445ZM174.428 223.723V224.789H165.896V219.006H174.318V220.072H167.182V223.723H174.428ZM175.713 227.469V228.549H164.502V227.469H175.713ZM187.299 223.531V224.529H176.088V223.531H187.299ZM185.918 225.391V228.084H178.727V229.096H186.301V230.012H177.428V227.223H184.633V226.32H177.414V225.391H185.918ZM185.891 218.227V220.879H178.809V221.809H186.096V222.725H177.523V220.018H184.592V219.143H177.496V218.227H185.891ZM201.789 225.295V226.361H196.84V230.176H195.555V226.361H190.619V225.295H201.789ZM200.723 219.389V220.441H196.854C196.929 221.795 198.774 223.114 201.105 223.408L200.641 224.447C198.672 224.174 196.997 223.251 196.211 222C195.411 223.265 193.723 224.174 191.754 224.447L191.275 223.408C193.606 223.114 195.466 221.822 195.555 220.441H191.672V219.389H195.555V217.912H196.84V219.389H200.723ZM206.512 220.824C206.512 222.369 207.66 223.791 209.547 224.379L208.918 225.404C207.51 224.96 206.443 224.03 205.896 222.834C205.35 224.119 204.29 225.117 202.848 225.596L202.219 224.584C204.092 223.982 205.227 222.479 205.227 220.824V220.537H202.561V219.484H205.227V217.994H206.525V219.484H209.178V220.537H206.512V220.824ZM212.432 217.926V227.045H211.133V222.684H208.754V221.631H211.133V217.926H212.432ZM212.76 228.85V229.902H204.475V226.238H205.773V228.85H212.76ZM223.443 217.912V220.811H225.221V221.891H223.443V225.062H222.145V217.912H223.443ZM215.568 218.609V220.387H218.781V218.609H220.066V224.352H214.297V218.609H215.568ZM215.568 223.326H218.781V221.412H215.568V223.326ZM223.539 225.705V226.744H216.936V228.959H223.758V229.984H215.637V225.705H223.539ZM235.33 219.088V220.291C235.33 221.809 235.33 223.504 234.865 226.006L233.553 225.869C234.031 223.504 234.031 221.768 234.031 220.291V220.141H226.594V219.088H235.33ZM236.588 227.428V228.508H225.418V227.428H229.67V223.107H230.955V227.428H236.588ZM250.162 217.912V230.189H248.863V223.381H246.334V222.314H248.863V217.912H250.162ZM244.311 221.357C244.311 223.436 245.609 225.664 247.496 226.498L246.717 227.537C245.302 226.854 244.208 225.425 243.668 223.75C243.121 225.534 242.007 227.059 240.592 227.783L239.799 226.771C241.672 225.883 242.984 223.559 242.998 221.357V220.209H240.291V219.143H247.031V220.209H244.311V221.357ZM255.814 220.168C255.814 221.727 256.895 223.148 258.754 223.736L258.139 224.748C256.744 224.304 255.726 223.381 255.186 222.219C254.652 223.559 253.579 224.618 252.109 225.131L251.439 224.092C253.354 223.463 254.502 221.877 254.516 220.182V219.84H251.822V218.787H258.453V219.84H255.814V220.168ZM261.16 217.912V220.947H262.938V222.014H261.16V225.268H259.861V217.912H261.16ZM257.209 225.568C259.738 225.568 261.27 226.402 261.27 227.838C261.27 229.287 259.738 230.148 257.209 230.135C254.652 230.148 253.094 229.287 253.094 227.838C253.094 226.402 254.652 225.568 257.209 225.568ZM257.209 226.594C255.432 226.594 254.379 227.045 254.393 227.838C254.379 228.658 255.432 229.109 257.209 229.109C258.973 229.109 259.998 228.658 259.998 227.838C259.998 227.045 258.973 226.594 257.209 226.594ZM269.191 219.936V220.988H263.107V219.936H265.514V218.268H266.799V219.936H269.191ZM266.156 221.727C267.715 221.727 268.809 222.889 268.822 224.543C268.809 226.211 267.715 227.387 266.156 227.387C264.625 227.387 263.49 226.211 263.504 224.543C263.49 222.889 264.625 221.727 266.156 221.727ZM266.156 222.807C265.268 222.807 264.652 223.531 264.652 224.543C264.652 225.582 265.268 226.279 266.156 226.279C267.031 226.279 267.674 225.582 267.674 224.543C267.674 223.531 267.031 222.807 266.156 222.807ZM273.621 217.912V230.162H272.391V224.078H270.982V229.588H269.752V218.186H270.982V223.012H272.391V217.912H273.621ZM285.945 227.564V228.645H274.734V227.564H279.67V225.049H276.02V218.746H277.318V220.852H283.334V218.746H284.619V225.049H280.955V227.564H285.945ZM277.318 223.996H283.334V221.904H277.318V223.996ZM290.066 221.262C290.066 223.217 290.887 225.309 292.527 226.307L291.803 227.305C290.654 226.614 289.875 225.391 289.465 223.969C289.007 225.527 288.166 226.854 286.977 227.578L286.17 226.607C287.906 225.568 288.809 223.408 288.809 221.316V219.033H290.066V221.262ZM296.875 217.912V230.162H295.631V217.912H296.875ZM294.332 218.145V229.561H293.102V223.299H291.201V222.219H293.102V218.145H294.332ZM309.145 227.551V228.631H297.934V227.551H300.613V224.352C299.608 223.798 299 222.916 299 221.822C299 219.895 300.887 218.623 303.512 218.623C306.15 218.623 308.037 219.895 308.037 221.822C308.037 222.902 307.449 223.771 306.465 224.324V227.551H309.145ZM303.512 219.662C301.584 219.662 300.258 220.496 300.258 221.822C300.258 223.135 301.584 223.996 303.512 223.996C305.426 223.996 306.779 223.135 306.779 221.822C306.779 220.496 305.426 219.662 303.512 219.662ZM301.898 227.551H305.152V224.816C304.653 224.946 304.1 225.008 303.512 225.008C302.938 225.008 302.391 224.946 301.898 224.83V227.551Z" fill="#ADB5BD"/>
</svg>
