<svg width="375" height="300" viewBox="0 0 375 300" fill="none" xmlns="http://www.w3.org/2000/svg">
<path fill-rule="evenodd" clip-rule="evenodd" d="M171.938 53.9197C173.222 52.3041 175.676 52.3041 176.96 53.9197L186.461 65.8723C186.512 65.9356 186.609 65.9356 186.66 65.8723L196.161 53.9197C197.445 52.3041 199.899 52.3041 201.183 53.9197L210.684 65.8723C210.894 66.1366 211.107 66.4285 211.327 66.7295C212.192 67.9123 213.159 69.2365 214.44 69.5819C221.007 71.3536 226.252 76.6269 227.813 83.5145C230.464 95.2201 221.566 106.36 209.564 106.36H205.309C205.645 107.007 205.933 107.686 206.168 108.393L213.087 129.213C213.589 128.962 214.148 128.807 214.744 128.772C220.259 128.446 224.9 130.484 227.623 134.391C230.269 138.19 230.619 143.068 229.106 147.558C226.017 156.728 215.485 164.438 198.33 164.582C195.969 164.602 194.038 162.703 194.018 160.341C193.998 157.979 195.897 156.048 198.259 156.028C213.039 155.905 219.434 149.476 221 144.828C221.815 142.409 221.424 140.457 220.604 139.281C219.87 138.227 218.35 137.158 215.367 137.304C216.031 145.156 209.844 152.338 201.505 152.338H171.608C162.126 152.338 155.427 143.053 158.417 134.054L166.945 108.393C167.18 107.686 167.468 107.007 167.804 106.36H163.717C151.992 106.36 143.155 95.6994 145.331 84.1776C146.677 77.0473 151.962 71.5037 158.677 69.6266C159.951 69.2705 160.909 67.9505 161.769 66.7658C161.997 66.4516 162.219 66.147 162.437 65.8723L171.938 53.9197Z" fill="#ECECEC"/>
<circle cx="173.726" cy="85.4524" r="4.81148" fill="white" stroke="#C4C4C4" stroke-width="3.20766"/>
<path d="M194.812 89.4326L202.772 81.4727" stroke="#C4C4C4" stroke-width="3.20766" stroke-linecap="round"/>
<path d="M194.812 81.4722L202.772 89.4321" stroke="#C4C4C4" stroke-width="3.20766" stroke-linecap="round"/>
<path d="M217.25 112.449C217.25 117.535 212.731 121.657 207.156 121.657C201.582 121.657 197.062 117.535 197.062 112.449C197.062 107.603 203.364 99.4499 206.687 94.7091C206.91 94.3913 207.384 94.4045 207.593 94.7316C210.907 99.9222 217.25 107.587 217.25 112.449Z" fill="#DCDCDC"/>
<path d="M95.791 187.082V204.758H93.623V195.109H90.2246V193.332H93.623V187.082H95.791ZM87.4707 191.77C87.4707 194.816 89.1113 198.059 91.9629 199.289L90.6738 201.027C88.623 200.051 87.1582 198.088 86.3965 195.754C85.6055 198.244 84.1113 200.344 82.0605 201.379L80.752 199.68C83.584 198.352 85.2441 194.992 85.2637 191.77V190.598H81.4746V188.82H91.2598V190.598H87.4707V191.77ZM104.1 190.266C104.1 192.434 105.506 194.465 108.26 195.305L107.225 197.004C105.242 196.389 103.836 195.129 103.064 193.527C102.283 195.383 100.789 196.857 98.6699 197.57L97.5762 195.852C100.428 194.914 101.912 192.629 101.912 190.285V190.07H98.1816V188.312H107.771V190.07H104.1V190.266ZM111.697 187.082V191.32H114.158V193.098H111.697V197.609H109.529V187.082H111.697ZM105.955 198C109.607 198 111.854 199.23 111.873 201.34C111.854 203.469 109.607 204.719 105.955 204.719C102.264 204.719 99.9785 203.469 99.9785 201.34C99.9785 199.23 102.264 198 105.955 198ZM105.955 199.699C103.533 199.699 102.146 200.266 102.146 201.34C102.146 202.434 103.533 203.02 105.955 203.02C108.377 203.02 109.725 202.434 109.725 201.34C109.725 200.266 108.377 199.699 105.955 199.699ZM124.83 192.629V194.367H121.549V196.359C123.023 196.301 124.488 196.203 125.865 196.066L126.021 197.629C122.271 198.156 118.209 198.254 114.928 198.254L114.635 196.516C116.09 196.506 117.701 196.496 119.361 196.438V194.367H116.158V188.176H124.693V189.934H118.346V192.629H124.83ZM129.283 187.082V200.344H127.096V187.082H129.283ZM129.791 202.629V204.387H117.447V199.367H119.635V202.629H129.791ZM150.197 187.59V189.23H147.775V191.906H150.1V193.547H137.131V191.906H139.455V189.23H137.033V187.59H150.197ZM151.682 194.66V196.379H135.588V194.66H151.682ZM149.67 197.57V201.77H139.631V202.961H150.158V204.582H137.502V200.266H147.541V199.152H137.482V197.57H149.67ZM141.623 191.906H145.588V189.23H141.623V191.906ZM159.17 188.918V195.402H154.99V198.723C156.816 198.703 158.545 198.625 160.537 198.254L160.713 200.031C158.35 200.461 156.357 200.52 154.131 200.52H152.9V193.684H157.08V190.656H152.881V188.918H159.17ZM167.568 187.082V204.738H165.498V187.082H167.568ZM163.936 187.453V203.84H161.885V194.992H159.951V193.215H161.885V187.453H163.936ZM183.846 187.082V204.758H181.658V187.082H183.846ZM174.334 188.371C176.99 188.371 178.924 190.793 178.943 194.602C178.924 198.449 176.99 200.852 174.334 200.852C171.658 200.852 169.725 198.449 169.725 194.602C169.725 190.793 171.658 188.371 174.334 188.371ZM174.334 190.324C172.83 190.324 171.814 191.906 171.814 194.602C171.814 197.316 172.83 198.898 174.334 198.898C175.818 198.898 176.834 197.316 176.834 194.602C176.834 191.906 175.818 190.324 174.334 190.324ZM200.65 187.082V204.758H198.502V187.082H200.65ZM195.221 188.625V195.246H189.146V198.801C191.93 198.781 194.332 198.645 197.076 198.176L197.271 199.953C194.264 200.48 191.627 200.578 188.463 200.578H186.92V193.527H193.014V190.383H186.9V188.625H195.221ZM211.85 189.504C211.85 192.238 214.525 194.973 218.217 195.617L217.24 197.434C214.281 196.809 211.859 195.021 210.717 192.648C209.545 195.002 207.123 196.799 204.174 197.434L203.217 195.617C206.869 194.953 209.525 192.219 209.545 189.504V188.195H211.85V189.504ZM218.861 200.695V202.492H202.729V200.695H218.861ZM233.869 196.34V198.059H221.486V188.469H233.713V190.227H223.693V192.355H233.303V194.055H223.693V196.34H233.869ZM235.646 200.812V202.59H219.514V200.812H235.646ZM250.127 187.082V193.977H252.744V195.793H250.127V204.699H247.959V187.082H250.127ZM245.459 188.918C245.459 194.113 243.311 198.664 237.432 201.555L236.201 199.875C240.498 197.736 242.822 194.729 243.271 190.715H237.158V188.918H245.459ZM261.334 197.414V199.309H263.658V197.414H265.67V203.02C267.74 202.15 268.697 200.363 268.697 198.684V197.277H270.865V198.684C270.865 200.52 271.803 202.297 273.99 203.039L272.877 204.66C271.324 204.104 270.318 203.029 269.771 201.691C269.176 202.99 268.17 204.064 266.705 204.66L265.67 203.117V204.523H259.303V197.414H261.334ZM261.334 202.863H263.658V200.93H261.334V202.863ZM262.232 187.805C264.508 187.805 266.305 189.074 266.764 190.988H269.947V187.082H272.115V196.438H269.947V192.785H266.764C266.334 194.748 264.518 196.047 262.232 196.047C259.518 196.047 257.564 194.348 257.564 191.906C257.564 189.484 259.518 187.805 262.232 187.805ZM262.232 189.602C260.709 189.602 259.635 190.5 259.635 191.906C259.635 193.332 260.709 194.27 262.232 194.27C263.717 194.27 264.771 193.332 264.791 191.906C264.771 190.5 263.717 189.602 262.232 189.602ZM278.939 188.371C281.332 188.371 283.1 190.363 283.412 193.586H286.771V187.082H288.92V204.758H286.771V195.344H283.432C283.197 198.752 281.4 200.852 278.939 200.852C276.283 200.852 274.408 198.449 274.408 194.602C274.408 190.793 276.283 188.371 278.939 188.371ZM278.939 190.324C277.475 190.324 276.479 191.906 276.498 194.602C276.479 197.316 277.475 198.898 278.939 198.898C280.404 198.898 281.381 197.316 281.4 194.602C281.381 191.906 280.404 190.324 278.939 190.324ZM307.033 200.812V202.59H290.9V200.812H294.631V196.34C293.225 195.539 292.375 194.279 292.385 192.707C292.365 189.895 295.139 188.039 298.928 188.039C302.736 188.039 305.51 189.895 305.51 192.707C305.51 194.25 304.689 195.49 303.322 196.301V200.812H307.033ZM298.928 189.758C296.291 189.758 294.494 190.871 294.514 192.707C294.494 194.523 296.291 195.656 298.928 195.656C301.564 195.656 303.381 194.523 303.381 192.707C303.381 190.871 301.564 189.758 298.928 189.758ZM296.779 200.812H301.115V197.121C300.441 197.277 299.709 197.355 298.928 197.355C298.166 197.355 297.443 197.277 296.779 197.141V200.812Z" fill="#4E5968"/>
<path d="M95.7598 221.234C95.7598 223.271 96.5938 225.322 98.2617 226.211L97.4961 227.236C96.3408 226.587 95.5547 225.425 95.1309 224.037C94.6729 225.555 93.832 226.854 92.6426 227.551L91.8223 226.607C93.5723 225.582 94.502 223.408 94.502 221.316V219.033H95.7598V221.234ZM102.527 217.912V230.162H101.283V223.846H99.8066V229.561H98.5625V218.145H99.8066V222.793H101.283V217.912H102.527ZM114.797 227.605V228.699H103.586V227.605H108.521V225.459H104.953V221.562H112.145V219.84H104.926V218.773H113.43V222.602H106.238V224.393H113.717V225.459H109.807V227.605H114.797ZM126.383 224.051V225.104H121.529V227.482H120.217V225.104H115.172V224.051H126.383ZM125.139 228.836V229.902H116.58V226.307H117.879V228.836H125.139ZM120.764 218.199C123.402 218.199 125.111 219.156 125.111 220.688C125.111 222.219 123.402 223.162 120.764 223.162C118.139 223.162 116.402 222.219 116.402 220.688C116.402 219.156 118.139 218.199 120.764 218.199ZM120.764 219.238C118.973 219.238 117.783 219.785 117.797 220.688C117.783 221.576 118.973 222.109 120.764 222.109C122.568 222.109 123.744 221.576 123.744 220.688C123.744 219.785 122.568 219.238 120.764 219.238ZM139.82 218.281V219.266H138.043V221.385H139.766V222.383H130.783V221.385H132.52V219.266H130.729V218.281H139.82ZM140.873 223.285V224.311H129.703V223.285H140.873ZM139.465 225.268V228.07H132.328V229.055H139.807V230.039H131.057V227.154H138.18V226.238H131.043V225.268H139.465ZM133.805 221.385H136.744V219.266H133.805V221.385ZM146.047 219.225V223.586H142.943V226.102C144.276 226.095 145.548 226.047 147.059 225.773L147.168 226.84C145.473 227.141 144.078 227.182 142.533 227.195H141.686V222.547H144.803V220.277H141.672V219.225H146.047ZM151.816 217.912V230.162H150.572V217.912H151.816ZM149.301 218.186V229.533H148.07V223.299H146.621V222.246H148.07V218.186H149.301ZM163.047 217.912V230.189H161.748V217.912H163.047ZM156.498 218.828C158.316 218.828 159.656 220.496 159.656 223.121C159.656 225.76 158.316 227.428 156.498 227.428C154.652 227.428 153.326 225.76 153.326 223.121C153.326 220.496 154.652 218.828 156.498 218.828ZM156.498 219.99C155.363 219.99 154.584 221.193 154.584 223.121C154.584 225.062 155.363 226.266 156.498 226.266C157.619 226.266 158.398 225.062 158.398 223.121C158.398 221.193 157.619 219.99 156.498 219.99ZM174.674 217.912V230.189H173.375V217.912H174.674ZM170.928 219.02V223.49H166.525V226.17C168.508 226.163 170.244 226.074 172.295 225.732L172.418 226.799C170.244 227.168 168.398 227.25 166.238 227.25H165.199V222.451H169.602V220.072H165.186V219.02H170.928ZM182.322 219.648C182.322 221.645 184.455 223.531 186.807 223.955L186.205 225.035C184.25 224.611 182.445 223.326 181.652 221.604C180.846 223.312 179.048 224.598 177.086 225.035L176.512 223.955C178.836 223.518 180.955 221.645 180.955 219.648V218.719H182.322V219.648ZM187.312 227.469V228.549H176.102V227.469H187.312ZM197.641 224.434V225.473H189.109V218.924H197.518V219.977H190.422V221.631H197.258V222.656H190.422V224.434H197.641ZM198.912 227.551V228.617H187.701V227.551H198.912ZM210.498 223.531V224.529H199.287V223.531H210.498ZM209.117 225.391V228.084H201.926V229.096H209.5V230.012H200.627V227.223H207.832V226.32H200.613V225.391H209.117ZM209.09 218.227V220.879H202.008V221.809H209.295V222.725H200.723V220.018H207.791V219.143H200.695V218.227H209.09ZM220.025 218.992V224.707H214.297V218.992H220.025ZM215.568 220.045V223.682H218.754V220.045H215.568ZM223.443 217.898V221.562H225.221V222.656H223.443V226.881H222.145V217.898H223.443ZM223.963 228.85V229.902H215.678V226.02H216.977V228.85H223.963ZM236.602 222.93V223.969H225.418V222.93H236.602ZM235.275 221.002V222.041H226.881V218.268H235.152V219.32H228.18V221.002H235.275ZM235.18 224.939V227.906H228.043V229H235.521V230.025H226.771V226.949H233.895V225.938H226.758V224.939H235.18ZM240.34 218.828C242.001 218.828 243.218 220.236 243.416 222.506H245.945V217.912H247.23V230.189H245.945V223.559H243.43C243.286 225.944 242.042 227.428 240.34 227.428C238.508 227.428 237.223 225.76 237.236 223.121C237.223 220.496 238.508 218.828 240.34 218.828ZM240.34 219.99C239.232 219.99 238.467 221.193 238.467 223.121C238.467 225.062 239.232 226.266 240.34 226.266C241.447 226.266 242.213 225.062 242.213 223.121C242.213 221.193 241.447 219.99 240.34 219.99ZM259.828 227.564V228.645H248.617V227.564H253.553V225.049H249.902V218.746H251.201V220.852H257.217V218.746H258.502V225.049H254.838V227.564H259.828ZM251.201 223.996H257.217V221.904H251.201V223.996ZM263.949 221.262C263.949 223.217 264.77 225.309 266.41 226.307L265.686 227.305C264.537 226.614 263.758 225.391 263.348 223.969C262.89 225.527 262.049 226.854 260.859 227.578L260.053 226.607C261.789 225.568 262.691 223.408 262.691 221.316V219.033H263.949V221.262ZM270.758 217.912V230.162H269.514V217.912H270.758ZM268.215 218.145V229.561H266.984V223.299H265.084V222.219H266.984V218.145H268.215ZM283.027 227.551V228.631H271.816V227.551H274.496V224.352C273.491 223.798 272.883 222.916 272.883 221.822C272.883 219.895 274.77 218.623 277.395 218.623C280.033 218.623 281.92 219.895 281.92 221.822C281.92 222.902 281.332 223.771 280.348 224.324V227.551H283.027ZM277.395 219.662C275.467 219.662 274.141 220.496 274.141 221.822C274.141 223.135 275.467 223.996 277.395 223.996C279.309 223.996 280.662 223.135 280.662 221.822C280.662 220.496 279.309 219.662 277.395 219.662ZM275.781 227.551H279.035V224.816C278.536 224.946 277.982 225.008 277.395 225.008C276.82 225.008 276.273 224.946 275.781 224.83V227.551Z" fill="#ADB5BD"/>
</svg>
