<svg width="375" height="200" viewBox="0 0 375 200" fill="none" xmlns="http://www.w3.org/2000/svg">
<path fill-rule="evenodd" clip-rule="evenodd" d="M174.686 20.5771C175.743 19.2466 177.764 19.2466 178.821 20.5771L186.646 30.4204C186.687 30.4724 186.768 30.4724 186.809 30.4204L194.634 20.5771C195.691 19.2466 197.712 19.2466 198.769 20.5771L206.594 30.4204C206.767 30.638 206.942 30.8784 207.124 31.1264L207.124 31.1264C207.835 32.1005 208.632 33.191 209.687 33.4755C215.095 34.9346 219.414 39.2773 220.699 44.9493C222.883 54.589 215.555 63.7632 205.671 63.7632H202.167C202.444 64.2955 202.681 64.8546 202.875 65.4373L208.572 82.5827C208.986 82.3765 209.446 82.2486 209.937 82.2196C214.478 81.9516 218.301 83.6296 220.543 86.8477C222.722 89.9763 223.01 93.9933 221.764 97.6911C219.22 105.243 210.547 111.592 196.42 111.71C194.475 111.727 192.885 110.163 192.868 108.218C192.852 106.273 194.416 104.683 196.361 104.666C208.532 104.564 213.799 99.2701 215.089 95.4422C215.76 93.4501 215.438 91.8432 214.763 90.8745C214.158 90.0068 212.906 89.1261 210.45 89.2463C210.997 95.7126 205.902 101.627 199.035 101.627H174.413C166.605 101.627 161.088 93.9802 163.55 86.57L170.573 65.4373C170.767 64.8546 171.004 64.2955 171.281 63.7632H167.915C158.259 63.7632 150.982 54.9838 152.773 45.4953C153.882 39.6232 158.234 35.0578 163.765 33.5121C164.814 33.2188 165.603 32.1317 166.311 31.1561C166.499 30.8974 166.681 30.6465 166.861 30.4204L174.686 20.5771Z" fill="#ECECEC"/>
<circle cx="176.157" cy="46.5453" r="3.96238" fill="white" stroke="#C4C4C4" stroke-width="2.64158"/>
<path d="M193.522 49.8232L200.078 43.268" stroke="#C4C4C4" stroke-width="2.64158" stroke-linecap="round"/>
<path d="M193.522 43.2675L200.078 49.8227" stroke="#C4C4C4" stroke-width="2.64158" stroke-linecap="round"/>
<path d="M212 68.7779C212 72.966 208.279 76.3612 203.688 76.3612C199.097 76.3612 195.375 72.966 195.375 68.7779C195.375 64.7869 200.565 58.0728 203.301 54.1685C203.485 53.9069 203.876 53.9177 204.047 54.1871C206.777 58.4617 212 64.7737 212 68.7779Z" fill="#DCDCDC"/>
<path d="M109.477 131.672V132.984H107.539V135.125H109.398V136.438H99.0234V135.125H100.883V132.984H98.9453V131.672H109.477ZM110.664 137.328V138.703H97.7891V137.328H110.664ZM109.055 139.656V143.016H101.023V143.969H109.445V145.266H99.3203V141.813H107.352V140.922H99.3047V139.656H109.055ZM102.617 135.125H105.789V132.984H102.617V135.125ZM116.555 132.734V137.922H113.211V140.578C114.672 140.563 116.055 140.5 117.648 140.203L117.789 141.625C115.898 141.969 114.305 142.016 112.523 142.016H111.539V136.547H114.883V134.125H111.523V132.734H116.555ZM123.273 131.266V145.391H121.617V131.266H123.273ZM120.367 131.563V144.672H118.727V137.594H117.18V136.172H118.727V131.563H120.367ZM136.195 131.266V145.406H134.445V131.266H136.195ZM128.586 132.297C130.711 132.297 132.258 134.234 132.273 137.281C132.258 140.359 130.711 142.281 128.586 142.281C126.445 142.281 124.898 140.359 124.898 137.281C124.898 134.234 126.445 132.297 128.586 132.297ZM128.586 133.859C127.383 133.859 126.57 135.125 126.57 137.281C126.57 139.453 127.383 140.719 128.586 140.719C129.773 140.719 130.586 139.453 130.586 137.281C130.586 135.125 129.773 133.859 128.586 133.859ZM149.539 131.266V145.406H147.82V131.266H149.539ZM145.195 132.5V137.797H140.336V140.641C142.562 140.625 144.484 140.516 146.68 140.141L146.836 141.563C144.43 141.984 142.32 142.063 139.789 142.063H138.555V136.422H143.43V133.906H138.539V132.5H145.195ZM158.398 133.203C158.398 135.391 160.539 137.578 163.492 138.094L162.711 139.547C160.344 139.047 158.406 137.617 157.492 135.719C156.555 137.602 154.617 139.039 152.258 139.547L151.492 138.094C154.414 137.563 156.539 135.375 156.555 133.203V132.156H158.398V133.203ZM164.008 142.156V143.594H151.102V142.156H164.008ZM175.914 138.672V140.047H166.008V132.375H175.789V133.781H167.773V135.484H175.461V136.844H167.773V138.672H175.914ZM177.336 142.25V143.672H164.43V142.25H177.336ZM189.945 131.266V145.391H188.273V131.266H189.945ZM187.039 131.516V144.703H185.383V137.984H184.039C183.875 140.734 182.695 142.438 180.945 142.422C179.102 142.438 177.898 140.484 177.898 137.375C177.898 134.266 179.102 132.344 180.945 132.344C182.656 132.344 183.82 133.938 184.023 136.578H185.383V131.516H187.039ZM180.945 133.984C180.055 133.969 179.492 135.172 179.508 137.375C179.492 139.578 180.055 140.781 180.945 140.766C181.883 140.781 182.445 139.578 182.445 137.375C182.445 135.172 181.883 133.969 180.945 133.984ZM200.805 131.547C203.93 131.547 205.883 132.578 205.898 134.297C205.883 135.984 203.93 137 200.805 136.984C197.711 137 195.711 135.984 195.711 134.297C195.711 132.578 197.711 131.547 200.805 131.547ZM200.805 132.906C198.742 132.906 197.508 133.391 197.523 134.297C197.508 135.156 198.742 135.625 200.805 135.641C202.867 135.625 204.102 135.156 204.102 134.297C204.102 133.391 202.867 132.906 200.805 132.906ZM205.695 140.469V145.219H195.898V140.469H205.695ZM197.617 141.844V143.813H204.008V141.844H197.617ZM207.258 137.938V139.344H194.383V137.938H207.258ZM211.68 132.078C213.852 132.063 215.477 133.484 215.492 135.469C215.477 137.484 213.852 138.891 211.68 138.891C209.492 138.891 207.852 137.484 207.867 135.469C207.852 133.484 209.492 132.063 211.68 132.078ZM211.68 133.547C210.461 133.563 209.555 134.297 209.57 135.469C209.555 136.672 210.461 137.422 211.68 137.406C212.883 137.422 213.789 136.672 213.789 135.469C213.789 134.297 212.883 133.563 211.68 133.547ZM218.852 131.266V134.703H220.82V136.125H218.852V139.547H217.117V131.266H218.852ZM218.852 140.188V145.406H217.117V141.594H209.445V140.188H218.852ZM232.789 131.266V145.406H231.039V131.266H232.789ZM225.18 132.297C227.305 132.297 228.852 134.234 228.867 137.281C228.852 140.359 227.305 142.281 225.18 142.281C223.039 142.281 221.492 140.359 221.492 137.281C221.492 134.234 223.039 132.297 225.18 132.297ZM225.18 133.859C223.977 133.859 223.164 135.125 223.164 137.281C223.164 139.453 223.977 140.719 225.18 140.719C226.367 140.719 227.18 139.453 227.18 137.281C227.18 135.125 226.367 133.859 225.18 133.859ZM240.867 139.531V141.047H242.727V139.531H244.336V144.016C245.992 143.32 246.758 141.891 246.758 140.547V139.422H248.492V140.547C248.492 142.016 249.242 143.438 250.992 144.031L250.102 145.328C248.859 144.883 248.055 144.024 247.617 142.953C247.141 143.992 246.336 144.852 245.164 145.328L244.336 144.094V145.219H239.242V139.531H240.867ZM240.867 143.891H242.727V142.344H240.867V143.891ZM241.586 131.844C243.406 131.844 244.844 132.859 245.211 134.391H247.758V131.266H249.492V138.75H247.758V135.828H245.211C244.867 137.399 243.414 138.438 241.586 138.438C239.414 138.438 237.852 137.078 237.852 135.125C237.852 133.188 239.414 131.844 241.586 131.844ZM241.586 133.281C240.367 133.281 239.508 134 239.508 135.125C239.508 136.266 240.367 137.016 241.586 137.016C242.773 137.016 243.617 136.266 243.633 135.125C243.617 134 242.773 133.281 241.586 133.281ZM254.852 132.297C256.766 132.297 258.18 133.891 258.43 136.469H261.117V131.266H262.836V145.406H261.117V137.875H258.445C258.258 140.602 256.82 142.281 254.852 142.281C252.727 142.281 251.227 140.359 251.227 137.281C251.227 134.234 252.727 132.297 254.852 132.297ZM254.852 133.859C253.68 133.859 252.883 135.125 252.898 137.281C252.883 139.453 253.68 140.719 254.852 140.719C256.023 140.719 256.805 139.453 256.82 137.281C256.805 135.125 256.023 133.859 254.852 133.859ZM277.227 142.25V143.672H264.32V142.25H267.305V138.672C266.18 138.031 265.5 137.024 265.508 135.766C265.492 133.516 267.711 132.031 270.742 132.031C273.789 132.031 276.008 133.516 276.008 135.766C276.008 137 275.352 137.992 274.258 138.641V142.25H277.227ZM270.742 133.406C268.633 133.406 267.195 134.297 267.211 135.766C267.195 137.219 268.633 138.125 270.742 138.125C272.852 138.125 274.305 137.219 274.305 135.766C274.305 134.297 272.852 133.406 270.742 133.406ZM269.023 142.25H272.492V139.297C271.953 139.422 271.367 139.484 270.742 139.484C270.133 139.484 269.555 139.422 269.023 139.313V142.25Z" fill="#4E5968"/>
<path d="M129.215 163.344C129.215 165.09 129.93 166.848 131.359 167.609L130.703 168.488C129.713 167.932 129.039 166.936 128.676 165.746C128.283 167.047 127.562 168.16 126.543 168.758L125.84 167.949C127.34 167.07 128.137 165.207 128.137 163.414V161.457H129.215V163.344ZM135.016 160.496V170.996H133.949V165.582H132.684V170.481H131.617V160.695H132.684V164.68H133.949V160.496H135.016ZM145.461 168.805V169.742H135.852V168.805H140.082V166.965H137.023V163.625H143.188V162.149H137V161.234H144.289V164.516H138.125V166.051H144.535V166.965H141.184V168.805H145.461ZM155.32 165.758V166.66H151.16V168.699H150.035V166.66H145.711V165.758H155.32ZM154.254 169.859V170.774H146.918V167.692H148.031V169.859H154.254ZM150.504 160.742C152.766 160.742 154.23 161.563 154.23 162.875C154.23 164.188 152.766 164.996 150.504 164.996C148.254 164.996 146.766 164.188 146.766 162.875C146.766 161.563 148.254 160.742 150.504 160.742ZM150.504 161.633C148.969 161.633 147.949 162.102 147.961 162.875C147.949 163.637 148.969 164.094 150.504 164.094C152.051 164.094 153.059 163.637 153.059 162.875C153.059 162.102 152.051 161.633 150.504 161.633ZM162.805 160.719C165.113 160.719 166.555 161.469 166.555 162.734C166.555 163.977 165.113 164.715 162.805 164.715C160.508 164.715 159.055 163.977 159.055 162.734C159.055 161.469 160.508 160.719 162.805 160.719ZM162.805 161.598C161.188 161.598 160.191 162.008 160.203 162.734C160.191 163.438 161.188 163.836 162.805 163.848C164.41 163.836 165.406 163.438 165.406 162.734C165.406 162.008 164.41 161.598 162.805 161.598ZM166.426 167.363V170.867H159.172V167.363H166.426ZM160.273 168.254V169.965H165.348V168.254H160.273ZM167.598 165.524V166.426H158.023V165.524H167.598ZM170.848 161.106C172.453 161.106 173.637 162.137 173.648 163.613C173.637 165.09 172.453 166.121 170.848 166.121C169.242 166.121 168.047 165.09 168.059 163.613C168.047 162.137 169.242 161.106 170.848 161.106ZM170.848 162.055C169.863 162.055 169.137 162.676 169.148 163.613C169.137 164.563 169.863 165.184 170.848 165.172C171.832 165.184 172.559 164.563 172.559 163.613C172.559 162.676 171.832 162.055 170.848 162.055ZM176.145 160.496V163.133H177.668V164.047H176.145V166.66H175.031V160.496H176.145ZM176.145 167.176V171.008H175.031V168.078H169.207V167.176H176.145ZM182.547 160.672C184.914 160.672 186.297 161.305 186.297 162.477C186.297 163.649 184.914 164.293 182.547 164.293C180.18 164.293 178.797 163.649 178.797 162.477C178.797 161.305 180.18 160.672 182.547 160.672ZM182.547 161.492C180.871 161.492 179.945 161.856 179.957 162.477C179.945 163.121 180.871 163.461 182.547 163.461C184.223 163.461 185.148 163.121 185.148 162.477C185.148 161.856 184.223 161.492 182.547 161.492ZM187.34 164.938V165.828H177.766V164.938H187.34ZM186.133 166.637V169.098H180.016V170.035H186.426V170.891H178.926V168.289H185.031V167.469H178.914V166.637H186.133ZM199.641 166.824V167.738H195.398V171.008H194.297V167.738H190.066V166.824H199.641ZM198.727 161.762V162.664H195.41C195.475 163.824 197.057 164.955 199.055 165.207L198.656 166.098C196.969 165.863 195.533 165.072 194.859 164C194.174 165.084 192.727 165.863 191.039 166.098L190.629 165.207C192.627 164.955 194.221 163.848 194.297 162.664H190.969V161.762H194.297V160.496H195.398V161.762H198.727ZM208.117 160.496V164.68H209.746V165.606H208.117V170.984H207.004V160.496H208.117ZM205.375 161.598C205.363 164.633 204.027 167.34 200.57 169.051L199.949 168.184C202.58 166.871 204.01 164.973 204.238 162.524H200.477V161.598H205.375ZM215 162.231V163.133H209.785V162.231H211.848V160.801H212.949V162.231H215ZM212.398 163.766C213.734 163.766 214.672 164.762 214.684 166.18C214.672 167.609 213.734 168.617 212.398 168.617C211.086 168.617 210.113 167.609 210.125 166.18C210.113 164.762 211.086 163.766 212.398 163.766ZM212.398 164.692C211.637 164.692 211.109 165.313 211.109 166.18C211.109 167.07 211.637 167.668 212.398 167.668C213.148 167.668 213.699 167.07 213.699 166.18C213.699 165.313 213.148 164.692 212.398 164.692ZM218.797 160.496V170.996H217.742V165.781H216.535V170.504H215.48V160.731H216.535V164.867H217.742V160.496H218.797ZM229.289 168.77V169.695H219.68V168.77H223.91V166.613H220.781V161.211H221.895V163.016H227.051V161.211H228.152V166.613H225.012V168.77H229.289ZM221.895 165.711H227.051V163.918H221.895V165.711ZM232.75 163.367C232.75 165.043 233.453 166.836 234.859 167.692L234.238 168.547C233.254 167.955 232.586 166.906 232.234 165.688C231.842 167.024 231.121 168.16 230.102 168.781L229.41 167.949C230.898 167.059 231.672 165.207 231.672 163.414V161.457H232.75V163.367ZM238.586 160.496V170.996H237.52V160.496H238.586ZM236.406 160.695V170.481H235.352V165.113H233.723V164.188H235.352V160.695H236.406ZM249.031 168.758V169.684H239.422V168.758H241.719V166.016C240.857 165.541 240.336 164.785 240.336 163.848C240.336 162.195 241.953 161.106 244.203 161.106C246.465 161.106 248.082 162.195 248.082 163.848C248.082 164.774 247.578 165.518 246.734 165.992V168.758H249.031ZM244.203 161.996C242.551 161.996 241.414 162.711 241.414 163.848C241.414 164.973 242.551 165.711 244.203 165.711C245.844 165.711 247.004 164.973 247.004 163.848C247.004 162.711 245.844 161.996 244.203 161.996ZM242.82 168.758H245.609V166.414C245.182 166.526 244.707 166.578 244.203 166.578C243.711 166.578 243.242 166.526 242.82 166.426V168.758Z" fill="#ADB5BD"/>
</svg>
