<svg width="28" height="28" viewBox="0 0 28 28" fill="none" xmlns="http://www.w3.org/2000/svg">
<g id="icon">
<rect width="28" height="28" rx="14" fill="#F2E6FF"/>
<path id="Star 11" d="M12.0229 4.5344C13.0268 3.24749 14.9732 3.24749 15.9771 4.5344L18.0707 7.21825C18.3605 7.58972 18.7491 7.87204 19.1919 8.03285L22.3914 9.19467C23.9255 9.75177 24.527 11.6028 23.6133 12.9553L21.7077 15.7758C21.444 16.1662 21.2956 16.623 21.2795 17.0939L21.1632 20.4957C21.1075 22.127 19.5329 23.271 17.9643 22.8199L14.6929 21.8793C14.2402 21.7491 13.7598 21.7491 13.3071 21.8793L10.0357 22.8199C8.46713 23.271 6.89253 22.127 6.83678 20.4957L6.72051 17.0939C6.70442 16.623 6.556 16.1662 6.29225 15.7758L4.38673 12.9553C3.47303 11.6028 4.07447 9.75177 5.60863 9.19467L8.80809 8.03285C9.25093 7.87204 9.63951 7.58972 9.92929 7.21825L12.0229 4.5344Z" fill="#7303E3"/>
<circle id="Ellipse 11" cx="14" cy="14" r="3" fill="#F2E6FF"/>
</g>
</svg>
