<svg width="137" height="128" viewBox="0 0 137 128" fill="none" xmlns="http://www.w3.org/2000/svg">
<g clip-path="url(#clip0_1454_5407)">
<path d="M129.688 17.3907C129.688 19.709 127.808 21.5883 125.49 21.5883C123.172 21.5883 121.293 19.709 121.293 17.3907C121.293 15.0725 123.172 13.1931 125.49 13.1931C127.808 13.1931 129.688 15.0725 129.688 17.3907Z" fill="#EDDCFF"/>
<path d="M100.756 0.391127C71.4406 6.77042 52.1769 29.1057 48.1347 40.4286C47.8057 41.3502 47.8509 42.3532 48.2464 43.2483C57.1489 63.3917 98.8742 67.8566 109.679 59.6722C114.645 54.8625 112.138 40.3537 109.487 30.0051C108.569 26.4221 111.746 22.8404 115.382 22.1626C118.568 21.5686 121.186 20.311 122.579 18.8294C124.032 17.2832 122.026 15.7817 119.956 15.3162C112.633 13.6697 109.425 5.58068 104.233 1.16481C103.279 0.353664 101.979 0.124897 100.756 0.391127Z" fill="#683488"/>
<ellipse cx="72.7901" cy="59.2611" rx="60.3419" ry="28.3457" transform="rotate(15.8537 72.7901 59.2611)" fill="#804AA1"/>
<path fill-rule="evenodd" clip-rule="evenodd" d="M68.8896 43.9941C52.068 43.9941 37.5208 55.7182 33.9467 72.1557L27.083 103.722C25.4268 111.34 31.2293 118.539 39.0245 118.539H50.1355V118.835C50.1355 123.897 54.2389 128 59.3009 128C64.3628 128 68.4663 123.897 68.4663 118.835V118.539H70.2995V118.835C70.2995 123.897 74.403 128 79.4649 128C84.5268 128 88.6303 123.897 88.6303 118.835V118.539H100.257C108.275 118.539 114.12 110.948 112.072 103.197L103.462 70.6171C99.3152 54.9252 85.1202 43.9941 68.8896 43.9941Z" fill="#EDDCFF"/>
<circle cx="33.0267" cy="87.3769" r="7.94335" fill="#DCB9FF"/>
<circle cx="104.517" cy="92.8764" r="11.6095" fill="#DCB9FF"/>
<circle cx="57.4677" cy="71.4905" r="3.66616" fill="#DAF50F" stroke="#BF81FE" stroke-width="2.44411"/>
<rect x="72.7294" y="70.2681" width="10.8155" height="10.8155" rx="1.22205" transform="rotate(-45 72.7294 70.2681)" fill="white" stroke="#BF81FE" stroke-width="2.44411" stroke-linejoin="round"/>
<path d="M65.411 82.4883V82.7938C65.411 84.9873 67.1892 86.7655 69.3827 86.7655V86.7655C71.5762 86.7655 73.3544 84.9873 73.3544 82.7938V82.4883" stroke="#FFAED1" stroke-width="2.44411" stroke-linecap="round"/>
<path d="M80.1018 67.2347C80.2091 66.992 80.5535 66.992 80.6607 67.2347L81.4314 68.9786C81.4592 69.0417 81.5076 69.0934 81.5686 69.1255L83.2278 69.9981C83.4455 70.1126 83.4455 70.4243 83.2278 70.5389L81.5686 71.4114C81.5076 71.4435 81.4592 71.4953 81.4314 71.5583L80.6607 73.3022C80.5535 73.5449 80.2091 73.545 80.1018 73.3022L79.3312 71.5583C79.3033 71.4953 79.255 71.4435 79.1939 71.4114L77.5348 70.5389C77.3171 70.4243 77.3171 70.1126 77.5348 69.9981L79.1939 69.1255C79.255 69.0934 79.3033 69.0417 79.3312 68.9786L80.1018 67.2347Z" fill="#FF5CFA"/>
</g>
<rect x="0.814026" y="76.5132" width="37.1323" height="53.0462" rx="5.30462" transform="rotate(-30.0339 0.814026 76.5132)" fill="white"/>
<g filter="url(#filter0_i_1454_5407)">
<rect x="6.00745" y="78.8721" width="30.5016" height="43.7631" rx="2.65231" transform="rotate(-30.0339 6.00745 78.8721)" fill="#A54DFD"/>
</g>
<path d="M23.7288 93.2967L24.761 89.2641C24.8952 88.7397 25.4342 88.4281 25.9556 88.5734L29.9653 89.6911C30.4713 89.8321 30.7717 90.3517 30.6415 90.8605L29.6092 94.8931C29.475 95.4175 28.936 95.7291 28.4147 95.5838L24.4049 94.4661C23.8989 94.3251 23.5985 93.8055 23.7288 93.2967Z" fill="#BF81FE" stroke="white" stroke-width="0.763849" stroke-linecap="round"/>
<path d="M33.1385 91.317L33.7862 88.4227L36.7111 89.2232C37.5381 89.4495 37.6817 90.5611 36.9395 90.9903L34.564 92.3636C33.8358 92.7847 32.9549 92.1378 33.1385 91.317Z" fill="#DAF50F"/>
<path d="M28.714 86.6443L33.0906 84.114C33.8189 83.693 34.6998 84.3398 34.5161 85.1607L33.1385 91.317C32.9549 92.1378 33.8358 92.7847 34.564 92.3636L36.9395 90.9903C37.6817 90.5611 37.5381 89.4495 36.7111 89.2232L31.3721 87.7621" stroke="white" stroke-width="0.763849" stroke-linecap="round"/>
<path d="M27.2618 92.2109C27.2374 92.2051 27.2126 92.2005 27.1876 92.1973C27.1973 92.1741 27.2057 92.1503 27.2128 92.1262C27.2373 92.1321 27.2621 92.1366 27.2871 92.1398C27.2774 92.1631 27.2689 92.1868 27.2618 92.2109ZM27.6224 92.4286L27.4666 92.5652L27.6224 92.4286L27.6787 92.4929L27.6224 92.4286Z" fill="white" stroke="white" stroke-width="1.24412"/>
<defs>
<filter id="filter0_i_1454_5407" x="6.97839" y="64.5767" width="46.3682" height="51.2114" filterUnits="userSpaceOnUse" color-interpolation-filters="sRGB">
<feFlood flood-opacity="0" result="BackgroundImageFix"/>
<feBlend mode="normal" in="SourceGraphic" in2="BackgroundImageFix" result="shape"/>
<feColorMatrix in="SourceAlpha" type="matrix" values="0 0 0 0 0 0 0 0 0 0 0 0 0 0 0 0 0 0 127 0" result="hardAlpha"/>
<feOffset dx="-4.95238" dy="-21.4603"/>
<feComposite in2="hardAlpha" operator="arithmetic" k2="-1" k3="1"/>
<feColorMatrix type="matrix" values="0 0 0 0 0 0 0 0 0 0 0 0 0 0 0 0 0 0 0.25 0"/>
<feBlend mode="normal" in2="shape" result="effect1_innerShadow_1454_5407"/>
</filter>
<clipPath id="clip0_1454_5407">
<rect width="131.58" height="128" fill="white" transform="translate(7)"/>
</clipPath>
</defs>
</svg>
