<svg width="87" height="63" viewBox="0 0 87 63" fill="none" xmlns="http://www.w3.org/2000/svg">
<path fill-rule="evenodd" clip-rule="evenodd" d="M72.6289 39.4197C73.2069 38.4743 74.2838 37.8812 75.4637 37.977C79.715 38.3221 83.1443 40.1289 84.8918 43.2132C86.6461 46.3094 86.2866 49.9643 84.4463 53.0446C80.7812 59.1795 71.4092 63.3679 57.622 61.6363C55.9601 61.4275 54.782 59.911 54.9907 58.249C55.0074 58.116 55.0325 57.986 55.0654 57.8596C53.0919 57.952 51.0657 58 49 58C28.5655 58 12 53.299 12 47.5C12 41.701 28.5655 37 49 37C57.9837 37 66.2197 37.9086 72.6289 39.4197Z" fill="black" fill-opacity="0.12"/>
<path fill-rule="evenodd" clip-rule="evenodd" d="M19.627 0.882805C20.5626 -0.294266 22.3503 -0.294269 23.2859 0.882802L30.2085 9.59141C30.2451 9.63754 30.3165 9.63754 30.3531 9.59141L37.2757 0.882805C38.2113 -0.294266 39.999 -0.294269 40.9346 0.882802L47.8572 9.59141C48.6115 10.5404 49.4232 11.9785 50.5936 12.2942C55.3783 13.5851 59.1997 17.4272 60.3366 22.4453C62.2687 30.9739 55.7852 39.0904 47.0406 39.0904H13.6371C5.09411 39.0904 -1.34399 31.3232 0.240836 22.9285C1.22162 17.7333 5.07245 13.6943 9.96501 12.3267C11.1395 11.9984 11.9456 10.5461 12.7044 9.59141L19.627 0.882805Z" fill="#494949"/>
<rect x="15.5804" y="19.4758" width="56.0897" height="31.161" rx="15.5805" fill="#494949"/>
<path d="M72.8387 36.614C84.1346 37.7825 80.0736 57.7406 59.2058 54.4004" stroke="#494949" stroke-width="6.23219" stroke-linecap="round"/>
<circle cx="21.8127" cy="24.15" r="3.50561" fill="#AC5AFF" stroke="#DAF50F" stroke-width="2.33707"/>
<circle cx="38.9511" cy="24.15" r="3.50561" fill="#AC5AFF" stroke="#DAF50F" stroke-width="2.33707"/>
</svg>
