<svg width="39" height="39" viewBox="0 0 39 39" fill="none" xmlns="http://www.w3.org/2000/svg">
<defs>
<filter id="filter0_i_1441_5377" x="7.35327" y="6.97168" width="24.2096" height="23.4727" filterUnits="userSpaceOnUse" color-interpolation-filters="sRGB">
<feFlood flood-opacity="0" result="BackgroundImageFix"/>
<feBlend mode="normal" in="SourceGraphic" in2="BackgroundImageFix" result="shape"/>
<feColorMatrix in="SourceAlpha" type="matrix" values="0 0 0 0 0 0 0 0 0 0 0 0 0 0 0 0 0 0 127 0" result="hardAlpha"/>
<feOffset dx="2.43902" dy="-1.21951"/>
<feComposite in2="hardAlpha" operator="arithmetic" k2="-1" k3="1"/>
<feColorMatrix type="matrix" values="0 0 0 0 0 0 0 0 0 0 0 0 0 0 0 0 0 0 0.25 0"/>
<feBlend mode="normal" in2="shape" result="effect1_innerShadow_1441_5377"/>
</filter>
</defs>
<ellipse cx="19.7004" cy="29.0003" rx="12.8426" ry="3.54279" fill="black" fill-opacity="0.12"/>
<g filter="url(#filter0_i_1441_5377)">
<path d="M15.2683 9.729C16.8516 6.05241 22.0645 6.05241 23.6478 9.729C24.3082 11.2625 25.7537 12.3128 27.4163 12.467C31.4022 12.8366 33.0131 17.7944 30.0057 20.4363C28.7513 21.5383 28.1992 23.2376 28.5663 24.8664C29.4464 28.7715 25.2291 31.8355 21.7871 29.7917C20.3514 28.9393 18.5647 28.9393 17.129 29.7917C13.6871 31.8355 9.46977 28.7715 10.3499 24.8664C10.717 23.2376 10.1649 21.5383 8.91048 20.4363C5.9031 17.7944 7.51396 12.8366 11.4999 12.467C13.1624 12.3128 14.6079 11.2625 15.2683 9.729Z" fill="#DAF50F"/>
</g>
</svg>
