<svg width="40" height="40" viewBox="0 0 40 40" fill="none" xmlns="http://www.w3.org/2000/svg">
<rect width="40" height="40" rx="12" fill="#F2E6FF"/>
<path d="M11.158 8.21057H25.8948C27.5226 8.21057 28.8422 9.53015 28.8422 11.1579V30.3158H14.1053C12.4775 30.3158 11.158 28.9963 11.158 27.3685V8.21057Z" fill="#8C1CFC"/>
<g filter="url(#filter0_i_1052_4330)">
<path d="M11.158 26.6316H29.2106C30.6349 26.6316 31.7895 27.7862 31.7895 29.2105C31.7895 30.6349 30.6349 31.7895 29.2106 31.7895H14.1053C12.4775 31.7895 11.158 30.4699 11.158 28.8421V26.6316Z" fill="#7303E3"/>
</g>
<circle cx="11.1578" cy="11.1579" r="2.94737" fill="#7303E3"/>
<path d="M15.5789 17.7896H22.9473" stroke="#BF81FE" stroke-width="2.21053" stroke-linecap="round"/>
<path d="M15.5789 22.2106H20.7368" stroke="#BF81FE" stroke-width="2.21053" stroke-linecap="round"/>
<path d="M24.6499 10.8295C24.6954 10.6965 24.8834 10.6965 24.9289 10.8295L25.4225 12.2751C25.4373 12.3183 25.4712 12.3522 25.5143 12.367L26.9599 12.8606C27.0929 12.906 27.0929 13.0941 26.9599 13.1396L25.5143 13.6332C25.4712 13.6479 25.4373 13.6819 25.4225 13.725L24.9289 15.1706C24.8834 15.3036 24.6954 15.3036 24.6499 15.1706L24.1563 13.725C24.1415 13.6819 24.1076 13.6479 24.0644 13.6332L22.6188 13.1396C22.4859 13.0941 22.4859 12.906 22.6188 12.8606L24.0644 12.367C24.1076 12.3522 24.1415 12.3183 24.1563 12.2751L24.6499 10.8295Z" fill="white"/>
<defs>
<filter id="filter0_i_1052_4330" x="11.158" y="26.6316" width="20.6316" height="5.15784" filterUnits="userSpaceOnUse" color-interpolation-filters="sRGB">
<feFlood flood-opacity="0" result="BackgroundImageFix"/>
<feBlend mode="normal" in="SourceGraphic" in2="BackgroundImageFix" result="shape"/>
<feColorMatrix in="SourceAlpha" type="matrix" values="0 0 0 0 0 0 0 0 0 0 0 0 0 0 0 0 0 0 127 0" result="hardAlpha"/>
<feOffset dx="-0.736842" dy="-0.736842"/>
<feComposite in2="hardAlpha" operator="arithmetic" k2="-1" k3="1"/>
<feColorMatrix type="matrix" values="0 0 0 0 0 0 0 0 0 0 0 0 0 0 0 0 0 0 0.25 0"/>
<feBlend mode="normal" in2="shape" result="effect1_innerShadow_1052_4330"/>
</filter>
</defs>
</svg>
