<svg width="375" height="812" viewBox="0 0 375 812" fill="none" xmlns="http://www.w3.org/2000/svg">
<g clip-path="url(#clip0_1305_9845)">
<rect width="375" height="812" fill="#A191B5"/>
<path d="M43.5543 448.736C44.2654 446.405 47.5644 446.405 48.2755 448.736L52.1595 461.463C52.3818 462.192 52.9278 462.777 53.6391 463.049L65.7967 467.695C67.9128 468.503 67.9128 471.497 65.7967 472.305L53.6391 476.951C52.9278 477.223 52.3818 477.808 52.1595 478.537L48.2755 491.264C47.5644 493.595 44.2654 493.595 43.5543 491.264L39.6703 478.537C39.448 477.808 38.902 477.223 38.1907 476.951L26.0331 472.305C23.917 471.497 23.917 468.503 26.0331 467.695L38.1907 463.049C38.902 462.777 39.448 462.192 39.6703 461.463L43.5543 448.736Z" fill="black" fill-opacity="0.11"/>
<path d="M310.035 238.638C313.258 235.993 318.047 238.698 317.448 242.823L314.62 262.278C314.362 264.051 315.166 265.811 316.676 266.778L333.229 277.379C336.739 279.627 335.648 285.016 331.54 285.722L312.162 289.048C310.396 289.351 308.971 290.66 308.518 292.393L303.549 311.418C302.496 315.451 297.032 316.078 295.093 312.388L285.947 294.989C285.113 293.402 283.428 292.451 281.638 292.556L262.016 293.712C257.855 293.957 255.57 288.955 258.479 285.97L272.202 271.888C273.453 270.605 273.837 268.709 273.184 267.04L266.023 248.729C264.505 244.848 268.557 241.129 272.294 242.974L289.922 251.672C291.529 252.465 293.452 252.245 294.837 251.108L310.035 238.638Z" fill="black" fill-opacity="0.11"/>
<path d="M-11.9537 -74.0015C-0.482452 -114.197 56.4825 -114.197 67.9537 -74.0015C74.1072 -52.4394 96.2596 -39.6497 118.01 -45.1017C158.556 -55.265 187.038 -5.93198 157.963 24.1002C142.367 40.2103 142.367 65.7897 157.963 81.8998C187.038 111.932 158.556 161.265 118.01 151.102C96.2596 145.65 74.1072 158.439 67.9537 180.001C56.4825 220.197 -0.482452 220.197 -11.9537 180.001C-18.1072 158.439 -40.2596 145.65 -62.0096 151.102C-102.556 161.265 -131.038 111.932 -101.963 81.8998C-86.3668 65.7897 -86.3668 40.2103 -101.963 24.1002C-131.038 -5.93198 -102.556 -55.265 -62.0096 -45.1017C-40.2596 -39.6497 -18.1072 -52.4394 -11.9537 -74.0015Z" fill="black" fill-opacity="0.11"/>
</g>
<defs>
<clipPath id="clip0_1305_9845">
<rect width="375" height="812" fill="white"/>
</clipPath>
</defs>
</svg>
