<svg width="42" height="40" viewBox="0 0 42 40" fill="none" xmlns="http://www.w3.org/2000/svg">
<rect width="42" height="40" rx="12" fill="#F2E6FF"/>
<g filter="url(#filter0_i_1052_4392)">
<mask id="path-2-inside-1_1052_4392" fill="white">
<path fill-rule="evenodd" clip-rule="evenodd" d="M27.882 25.8485C29.4553 23.9818 30.4034 21.5709 30.4034 18.9386C30.4034 13.0136 25.6002 8.21051 19.6753 8.21051C13.7504 8.21051 8.94727 13.0136 8.94727 18.9386C8.94727 24.8635 13.7504 29.6666 19.6753 29.6666C21.9039 29.6666 23.9738 28.987 25.6891 27.8238L29.1723 31.307C29.7478 31.8825 30.6809 31.8825 31.2564 31.307C31.8319 30.7315 31.8319 29.7984 31.2564 29.2229L27.882 25.8485Z"/>
</mask>
<path fill-rule="evenodd" clip-rule="evenodd" d="M27.882 25.8485C29.4553 23.9818 30.4034 21.5709 30.4034 18.9386C30.4034 13.0136 25.6002 8.21051 19.6753 8.21051C13.7504 8.21051 8.94727 13.0136 8.94727 18.9386C8.94727 24.8635 13.7504 29.6666 19.6753 29.6666C21.9039 29.6666 23.9738 28.987 25.6891 27.8238L29.1723 31.307C29.7478 31.8825 30.6809 31.8825 31.2564 31.307C31.8319 30.7315 31.8319 29.7984 31.2564 29.2229L27.882 25.8485Z" fill="#BF81FE"/>
<path d="M27.882 25.8485L25.6283 23.949L23.8839 26.0186L25.7979 27.9326L27.882 25.8485ZM25.6891 27.8238L27.7732 25.7397L26.0508 24.0173L24.0349 25.3845L25.6891 27.8238ZM29.1723 31.307L27.0882 33.3911L27.0882 33.3911L29.1723 31.307ZM31.2564 31.307L33.3405 33.3911L33.3405 33.3911L31.2564 31.307ZM31.2564 29.2229L33.3405 27.1388L33.3405 27.1388L31.2564 29.2229ZM27.456 18.9386C27.456 20.8501 26.7704 22.594 25.6283 23.949L30.1356 27.748C32.1402 25.3697 33.3507 22.2917 33.3507 18.9386H27.456ZM19.6753 11.1579C23.9725 11.1579 27.456 14.6414 27.456 18.9386H33.3507C33.3507 11.3858 27.228 5.26314 19.6753 5.26314V11.1579ZM11.8946 18.9386C11.8946 14.6414 15.3782 11.1579 19.6753 11.1579V5.26314C12.1226 5.26314 5.9999 11.3858 5.9999 18.9386H11.8946ZM19.6753 26.7192C15.3782 26.7192 11.8946 23.2357 11.8946 18.9386H5.9999C5.9999 26.4913 12.1226 32.614 19.6753 32.614V26.7192ZM24.0349 25.3845C22.7923 26.2271 21.2958 26.7192 19.6753 26.7192V32.614C22.5121 32.614 25.1553 31.747 27.3434 30.2632L24.0349 25.3845ZM31.2564 29.2229L27.7732 25.7397L23.605 29.9079L27.0882 33.3911L31.2564 29.2229ZM29.1723 29.2229C29.7478 28.6474 30.6809 28.6474 31.2564 29.2229L27.0882 33.3911C28.8147 35.1176 31.614 35.1176 33.3405 33.3911L29.1723 29.2229ZM29.1723 31.307C28.5968 30.7315 28.5968 29.7984 29.1723 29.2229L33.3405 33.3911C35.067 31.6646 35.067 28.8653 33.3405 27.1388L29.1723 31.307ZM25.7979 27.9326L29.1723 31.307L33.3405 27.1388L29.9661 23.7644L25.7979 27.9326Z" fill="#8C1CFC" mask="url(#path-2-inside-1_1052_4392)"/>
</g>
<path d="M23.1763 13.7768C23.2217 13.6438 23.4098 13.6438 23.4552 13.7768L23.9489 15.2224C23.9636 15.2656 23.9975 15.2995 24.0407 15.3142L25.4863 15.8079C25.6193 15.8533 25.6193 16.0414 25.4863 16.0868L24.0407 16.5805C23.9975 16.5952 23.9636 16.6291 23.9489 16.6723L23.4552 18.1179C23.4098 18.2509 23.2217 18.2509 23.1763 18.1179L22.6826 16.6723C22.6679 16.6291 22.634 16.5952 22.5908 16.5805L21.1452 16.0868C21.0122 16.0414 21.0122 15.8533 21.1452 15.8079L22.5908 15.3142C22.634 15.2995 22.6679 15.2656 22.6826 15.2224L23.1763 13.7768Z" fill="white"/>
<defs>
<filter id="filter0_i_1052_4392" x="8.94727" y="8.21051" width="22.7407" height="23.5281" filterUnits="userSpaceOnUse" color-interpolation-filters="sRGB">
<feFlood flood-opacity="0" result="BackgroundImageFix"/>
<feBlend mode="normal" in="SourceGraphic" in2="BackgroundImageFix" result="shape"/>
<feColorMatrix in="SourceAlpha" type="matrix" values="0 0 0 0 0 0 0 0 0 0 0 0 0 0 0 0 0 0 127 0" result="hardAlpha"/>
<feOffset dx="-0.736842" dy="-0.736842"/>
<feComposite in2="hardAlpha" operator="arithmetic" k2="-1" k3="1"/>
<feColorMatrix type="matrix" values="0 0 0 0 0 0 0 0 0 0 0 0 0 0 0 0 0 0 0.25 0"/>
<feBlend mode="normal" in2="shape" result="effect1_innerShadow_1052_4392"/>
</filter>
</defs>
</svg>
